<svg width="1260" height="700" viewBox="0 0 1260 700" fill="none" xmlns="http://www.w3.org/2000/svg">
<rect width="1260" height="700" fill="none"/>
<rect width="1113" height="129" transform="translate(73 501)" fill="white"/>
<path d="M196.287 553C188.898 553 183.993 558.496 183.993 565.492C183.993 572.889 188.964 577.974 196.287 577.974C203.47 577.974 208.556 572.66 208.556 565.486C208.555 558.313 203.469 553 196.287 553ZM154.218 553.018C151.871 553.018 148.901 553.826 146.715 555.623C144.108 557.767 142.091 561.123 142.091 565.636C142.091 569.528 143.352 572.663 145.627 574.786C147.854 576.865 151.004 578 154.91 578C158.055 578 161.852 576.813 163.481 575.806C164.051 575.454 164.23 575.303 164.082 574.727L163.065 571.847C162.947 571.374 162.423 571.253 161.997 571.465C161.282 571.816 160.748 572.093 160.023 572.36C158.615 572.881 157.158 573.236 155.771 573.236C152.851 573.236 151.191 572.442 149.919 570.977C149.111 570.047 148.638 568.868 148.491 567.506H164.605C165.192 567.506 165.453 567.101 165.453 566.416V565.254C165.453 564.688 165.427 563.8 165.379 563.269C165.083 560.024 163.889 557.414 161.898 555.645C159.979 553.938 157.403 553.018 154.218 553.018H154.218ZM180.49 553.041C175.837 553.041 172.996 554.108 171.172 556.459C169.775 558.262 169.523 560.278 169.525 564.592V576.433C169.589 577.277 169.928 577.671 170.717 577.671H174.398C175.25 577.671 175.598 577.227 175.598 576.433V564.371C175.598 561.654 175.631 560.138 176.586 559.112C177.408 558.231 178.511 557.654 180.823 557.654C181.282 557.654 182.38 557.775 182.763 557.821C182.908 557.839 183.026 557.85 183.089 557.85C183.488 557.85 183.626 557.705 183.754 557.198L184.306 554.484C184.408 553.927 184.323 553.494 183.769 553.363C182.926 553.163 181.584 553.041 180.49 553.041ZM119.436 553.363C119.036 553.363 118.748 553.682 118.913 554.221C120.01 557.805 122.792 562.06 125.677 565.552C122.001 568.864 119.43 573.269 118.14 576.809C117.95 577.33 118.245 577.67 118.535 577.67H122.873C123.497 577.67 123.784 577.448 124.07 576.813C125.243 574.223 126.984 571.233 129.268 568.809C131.361 570.825 133.193 573.89 134.367 576.813C134.696 577.622 135.076 577.67 135.568 577.67H140.298C141.203 577.67 141.283 577.179 141.12 576.751C139.316 571.996 135.478 567.142 133.313 565.092C135.296 562.976 138.889 558.889 140.459 554.221C140.69 553.535 140.263 553.364 139.909 553.364H135.948C135.468 553.364 135.147 553.531 134.792 554.222C132.659 558.244 130.739 560.616 129.912 561.471C128.609 559.925 126.896 557.142 125.643 554.221C125.371 553.588 125.083 553.363 124.532 553.363H119.436ZM210.631 553.363C210.232 553.363 209.943 553.682 210.107 554.221C211.203 557.805 213.986 562.06 216.871 565.552C213.196 568.864 210.625 573.269 209.335 576.809C209.145 577.33 209.442 577.67 209.73 577.67H214.068C214.691 577.67 214.978 577.448 215.264 576.813C216.437 574.223 218.178 571.233 220.462 568.809C222.556 570.824 224.388 573.89 225.56 576.813C225.892 577.622 226.272 577.67 226.762 577.67H231.492C232.396 577.67 232.477 577.179 232.315 576.751C230.51 571.996 226.671 567.142 224.509 565.091C226.49 562.975 230.085 558.888 231.654 554.221C231.886 553.535 231.458 553.363 231.103 553.363H227.144C226.663 553.363 226.341 553.531 225.986 554.221C223.854 558.244 221.934 560.616 221.108 561.471C219.803 559.925 218.091 557.142 216.837 554.221C216.565 553.588 216.276 553.363 215.726 553.363H210.631ZM196.291 557.573C200.593 557.573 202.214 561.294 202.214 565.488C202.214 569.683 200.593 573.407 196.291 573.406C191.987 573.406 190.329 569.683 190.329 565.488C190.329 561.295 191.987 557.573 196.291 557.573V557.573ZM154.42 557.594C157.639 557.594 159.605 559.78 159.605 563.025V563.172H148.482C148.601 562.365 148.832 561.599 149.194 560.871C150.185 558.871 152.077 557.594 154.42 557.594V557.594Z" fill="#D40E2A"/>
<path d="M308.382 565.5C308.382 558.596 302.786 553 295.882 553C295.694 553 295.506 553.005 295.32 553.013L292.763 560.041H294.99C296.315 560.041 297.029 561.061 296.575 562.307L293.422 570.974L290.773 570.974L294.158 561.683H292.167L288.782 570.974H286.133L290.113 560.041H290.113L292.507 553.462C287.243 554.934 283.382 559.766 283.382 565.5C283.382 571.404 287.476 576.352 292.98 577.661L295.3 571.286H295.301L299.394 560.041H304.271C305.597 560.041 306.311 561.061 305.857 562.307L303.086 569.919C302.875 570.499 302.198 570.974 301.581 570.974H298.065L295.511 577.994C295.634 577.998 295.758 578 295.882 578C302.786 578 308.382 572.403 308.382 565.5Z" fill="#0096D6"/>
<path d="M303.45 561.677H301.459L298.672 569.324H300.662L303.45 561.677" fill="#0096D6"/>
<path fill-rule="evenodd" clip-rule="evenodd" d="M469.977 557.552C463.593 557.552 460.197 561.132 460.065 565.773C459.148 560.724 454.791 557.426 449.829 557.426C444.894 557.426 440.682 560.71 439.764 565.7C439.747 561.264 436.282 557.436 431.776 557.436C429.813 557.436 428.11 558.19 426.75 559.506V553.033H421.949V567.447C421.949 567.92 421.931 568.226 421.864 568.926C421.573 571.921 419.558 573.398 417.364 573.398C415.083 573.398 413.025 572.321 412.963 568.943C412.953 568.36 412.936 568.118 412.936 567.704V562.308H420.411V557.776H412.936V553.034H408.068V565.724C407.144 561 402.982 557.435 397.984 557.435C394.765 557.435 391.892 558.916 390.008 561.232V557.552H389.475C383.203 557.552 379.815 561.008 379.573 565.529C378.651 560.947 374.863 557.552 370.075 557.552C367.569 557.552 365.611 558.462 364.08 559.993V553H359.382V565.153C359.382 566.051 359.408 566.896 359.419 567.706C359.487 573.329 363.421 577.942 369.515 577.942C374.775 577.942 378.604 574.519 379.558 569.958V577.462H384.373V568.095C384.373 567.668 384.398 567.194 384.411 566.756C384.501 563.903 386.37 562.202 389.343 562.152C388.274 563.808 387.707 565.736 387.71 567.706C387.71 573.38 392.309 577.977 397.985 577.977C402.982 577.977 407.145 574.413 408.068 569.689V569.701C408.068 574.635 412.031 578 416.804 578C418.816 578 420.593 577.138 421.949 575.728V577.46H426.75V567.265C426.753 567.023 426.762 566.827 426.768 566.639C426.889 563.369 428.806 561.946 430.912 561.946C433 561.946 434.805 563.375 434.877 566.623C434.893 566.886 434.9 567.149 434.898 567.412V577.46L439.765 577.463V569.837C440.68 574.761 444.854 577.939 449.832 577.939C455.479 577.939 458.668 574.326 459.524 570.546H454.815C454.404 571.89 452.732 573.953 449.83 573.953C447.213 573.953 444.98 572.165 444.415 569.246H460.059V577.462H464.875V568.095C464.875 567.668 464.9 567.194 464.915 566.756C465.005 563.859 466.926 562.147 469.977 562.147H470.511V557.552H469.977H469.977ZM369.516 573.319C366.346 573.319 363.904 570.839 363.904 567.706C363.904 564.573 366.33 562.094 369.516 562.094C372.702 562.094 375.128 564.559 375.128 567.706C375.128 570.853 372.686 573.319 369.516 573.319ZM397.984 573.319C394.814 573.319 392.373 570.839 392.373 567.706C392.373 564.573 394.799 562.094 397.984 562.094C401.171 562.094 403.597 564.559 403.597 567.706C403.597 570.853 401.155 573.319 397.984 573.319ZM444.627 565.451C445.418 562.998 447.46 561.482 449.83 561.482C452.875 561.482 454.7 563.925 455.047 565.451L444.627 565.451Z" fill="#005CAB"/>
<path fill-rule="evenodd" clip-rule="evenodd" d="M468.281 575.379C468.281 576.708 469.362 577.769 470.693 577.769C472.023 577.769 473.105 576.708 473.105 575.379C473.105 574.048 472.023 572.985 470.693 572.985C469.362 572.985 468.281 574.048 468.281 575.378V575.379ZM468.596 575.379C468.596 574.823 468.817 574.289 469.21 573.896C469.603 573.502 470.136 573.281 470.692 573.28C471.249 573.281 471.782 573.502 472.175 573.896C472.569 574.289 472.79 574.823 472.79 575.379C472.79 576.534 471.849 577.475 470.693 577.475C470.137 577.475 469.604 577.254 469.211 576.861C468.817 576.468 468.596 575.935 468.595 575.379H468.596Z" fill="#005CAB"/>
<path fill-rule="evenodd" clip-rule="evenodd" d="M469.965 574.257H470.941C471.326 574.257 471.463 574.436 471.463 574.76C471.463 575.085 471.327 575.29 470.943 575.29H469.965L469.965 574.257ZM469.965 575.61H470.922C471.223 575.61 471.349 575.797 471.379 576.125C471.388 576.22 471.404 576.341 471.414 576.457C471.426 576.618 471.454 576.74 471.47 576.815H471.897V576.759C471.852 576.702 471.814 576.599 471.791 576.39C471.781 576.291 471.766 576.18 471.754 576.059C471.723 575.738 471.617 575.537 471.404 575.429C471.668 575.34 471.855 575.084 471.855 574.705C471.855 574.221 471.542 573.93 470.954 573.93H469.584V576.814H469.965L469.965 575.61Z" fill="#005CAB"/>
<path d="M543.622 575.566C538.064 575.566 533.561 571.06 533.561 565.501C533.561 559.942 538.064 555.44 543.622 555.44C545.581 555.44 547.41 555.999 548.955 556.967L543.622 565.501L553.661 559.705C552.57 557.967 551.006 556.469 549.114 555.333C546.707 553.892 543.359 553 539.657 553C534.375 553 529.742 554.919 527.158 557.793C525.244 559.918 524.105 562.592 524.105 565.501C524.105 568.412 525.244 571.088 527.158 573.214C529.748 576.092 534.313 578 539.507 578C544.701 578 549.264 576.09 551.856 573.214C551.998 573.056 552.136 572.896 552.266 572.73L551.874 571.263C550.053 573.863 547.036 575.566 543.622 575.566M576.905 577.395L572.692 561.676C572.015 559.136 569.702 557.27 566.949 557.27C566.234 557.27 565.55 557.397 564.915 557.628L555.844 560.927H565.173L566.768 566.88C565.221 565.549 563.207 564.74 561.002 564.74C556.623 564.74 553.077 567.674 553.077 571.294C553.077 574.915 556.623 577.854 561.002 577.854C564.154 577.854 566.943 576.31 568.662 573.939L569.587 577.395H576.905M564.053 574.953C562.033 574.953 560.395 573.317 560.395 571.294C560.395 569.274 562.033 567.637 564.053 567.637C566.073 567.637 567.712 569.274 567.712 571.294C567.712 573.317 566.073 574.953 564.053 574.953ZM594.085 557.272C593.532 557.272 593.009 557.394 592.543 557.613L586.719 560.328C586.431 558.594 584.925 557.272 583.108 557.272C582.558 557.272 582.033 557.394 581.561 557.613L574.451 560.927H579.45V577.395H586.768V562.759C586.768 561.749 587.586 560.927 588.599 560.927C589.606 560.927 590.429 561.749 590.429 562.759V577.395H597.744V560.927C597.744 558.907 596.105 557.272 594.085 557.272M621.525 567.636C621.525 573.361 616.886 578 611.163 578C605.436 578 600.794 573.361 600.794 567.636C600.794 561.914 605.436 557.272 611.163 557.272C616.886 557.272 621.525 561.914 621.525 567.636M611.592 560.418C611.266 559.198 610.013 558.474 608.793 558.802C607.576 559.129 606.848 560.383 607.175 561.602L610.73 574.855C611.059 576.076 612.309 576.799 613.528 576.476C614.748 576.146 615.472 574.892 615.145 573.673L611.592 560.418Z" fill="#BF1920"/>
<path d="M639.976 557.272C639.422 557.272 638.896 557.395 638.422 557.614L632.604 560.328C632.317 558.594 630.811 557.272 628.994 557.272C628.445 557.272 627.92 557.395 627.446 557.614L620.339 560.927H625.337V577.395H632.654V562.759C632.654 561.749 633.472 560.927 634.485 560.927C635.495 560.927 636.313 561.749 636.313 562.759V577.395H643.634V560.927C643.634 558.907 641.993 557.273 639.976 557.273" fill="#BF1920"/>
<path d="M707.176 553L702.336 557.824H710.038V565.5L714.878 560.676V553H707.176ZM710.038 565.5V573.176H702.336L707.176 578H714.877V570.324L710.038 565.5ZM710.038 565.5L702.336 557.824V573.176L710.038 565.5ZM702.336 573.176L694.635 565.5V573.176L702.336 573.176ZM694.635 565.5L702.336 557.824H694.635V565.5Z" fill="#E31A2F"/>
<path d="M720.013 556.974H722.874V574.031H720.013V556.974ZM726.516 565.061L732.001 556.974H728.68L723.09 565.066L729.434 574.031H733.022L726.516 565.061ZM802.375 574.031H811.77V558.963C811.77 557.864 810.877 556.974 809.775 556.974H800.733V559.566H808.907V564.038H802.375C801.271 564.038 800.378 564.929 800.378 566.028V572.041C800.378 573.14 801.273 574.031 802.375 574.031V574.031ZM803.242 566.631H808.907V571.438H803.242V566.631M796.1 556.974C797.203 556.974 798.097 557.864 798.097 558.963V564.567C798.097 565.666 797.203 566.557 796.1 566.557H794.944L799.099 574.031H795.961L790.412 564.038H795.234V559.566H789.454V574.031H786.591V556.974H796.1ZM773.853 558.963C773.853 557.864 774.746 556.974 775.848 556.974H784.167V559.566H776.717V564.038H783.913V566.631H776.717V571.438H784.167V574.031H775.848C774.746 574.031 773.853 573.14 773.853 572.041V558.963M761.508 558.963C761.508 557.864 762.403 556.974 763.505 556.974H771.705V559.566H764.374V571.438H771.705V574.031H763.505C762.403 574.031 761.508 573.14 761.508 572.041V558.963M747.183 558.963C747.183 557.864 748.076 556.974 749.178 556.974H757.021C758.123 556.974 759.016 557.864 759.016 558.964V572.041C759.016 573.14 758.123 574.031 757.019 574.031H749.178C748.076 574.031 747.183 573.14 747.183 572.041V558.963ZM750.044 571.438H756.152V559.566H750.044V571.438ZM733.518 564.868V556.974H736.382V564.266H741.825V556.974H744.688V572.041C744.688 573.14 743.793 574.031 742.691 574.031L734.207 574.032V571.438L741.825 571.44V566.858H735.513C734.411 566.858 733.518 565.967 733.518 564.868Z" fill="#231F20"/>
<path d="M888.265 550.5C893.71 550.5 898.354 553.526 900.055 557.715C900.108 557.845 900.041 557.932 899.912 557.933C899.651 557.935 894.289 557.999 894.289 557.999H882.241C882.241 557.999 876.878 557.935 876.618 557.933C876.489 557.932 876.422 557.846 876.475 557.715C878.175 553.526 882.82 550.5 888.265 550.5ZM888.266 559.263C890.754 559.263 898.819 559.44 900.37 559.468C900.477 559.469 900.567 559.388 900.546 559.272C900.521 559.132 900.37 558.576 900.329 558.466C900.294 558.368 900.241 558.323 900.143 558.326C898.597 558.411 888.266 558.99 888.266 558.99C888.266 558.99 877.934 558.411 876.389 558.326C876.29 558.323 876.237 558.368 876.202 558.466C876.162 558.576 876.01 559.132 875.986 559.272C875.965 559.388 876.055 559.469 876.162 559.468C877.712 559.44 885.777 559.263 888.266 559.263ZM888.265 560.762C891.915 560.747 899.111 561.043 900.599 561.081C900.713 561.084 900.763 561.025 900.762 560.934C900.76 560.76 900.709 560.219 900.691 560.105C900.67 559.976 900.58 559.908 900.458 559.912C900.346 559.915 891.997 560.392 888.265 560.422C884.532 560.392 876.184 559.915 876.071 559.912C875.949 559.908 875.859 559.976 875.838 560.105C875.82 560.219 875.769 560.76 875.768 560.934C875.767 561.025 875.817 561.084 875.93 561.081C877.419 561.043 884.614 560.747 888.265 560.762ZM888.265 572.161C893.71 572.161 898.354 569.134 900.055 564.946C900.108 564.816 900.041 564.729 899.912 564.728C899.651 564.727 894.289 564.662 894.289 564.662H882.241C882.241 564.662 876.878 564.727 876.618 564.728C876.489 564.729 876.422 564.816 876.475 564.946C878.175 569.135 882.82 572.161 888.265 572.161ZM888.266 563.399C885.777 563.399 877.712 563.221 876.163 563.194C876.055 563.192 875.966 563.272 875.986 563.39C876.011 563.529 876.163 564.086 876.203 564.195C876.237 564.293 876.29 564.338 876.389 564.336C877.934 564.25 888.266 563.672 888.266 563.672C888.266 563.672 898.598 564.25 900.143 564.336C900.242 564.338 900.295 564.293 900.33 564.195C900.37 564.086 900.522 563.529 900.546 563.39C900.567 563.273 900.477 563.192 900.37 563.194C898.819 563.221 890.754 563.399 888.266 563.399ZM888.265 561.899C884.614 561.914 877.419 561.619 875.93 561.58C875.817 561.577 875.767 561.637 875.768 561.727C875.769 561.902 875.821 562.442 875.838 562.555C875.859 562.686 875.949 562.754 876.071 562.749C876.184 562.746 884.532 562.27 888.265 562.238C891.997 562.27 900.346 562.747 900.458 562.749C900.58 562.754 900.67 562.686 900.691 562.555C900.709 562.442 900.761 561.901 900.762 561.727C900.763 561.637 900.713 561.577 900.599 561.58C899.111 561.619 891.915 561.914 888.265 561.899Z" fill="#007DC5"/>
<path d="M869.103 579.86C868.583 579.86 867.764 579.475 867.764 578.23C867.764 576.983 868.58 576.584 869.103 576.584C869.628 576.584 870.443 576.982 870.443 578.23C870.443 579.478 869.624 579.86 869.103 579.86M869.1 575.959C867.894 575.959 866.917 576.975 866.917 578.23C866.917 579.483 867.894 580.5 869.1 580.5C870.306 580.5 871.285 579.483 871.285 578.23C871.284 576.975 870.306 575.959 869.1 575.959ZM902.68 579.86C902.159 579.86 901.34 579.475 901.34 578.23C901.34 576.983 902.155 576.584 902.68 576.584C903.204 576.584 904.019 576.982 904.019 578.23C904.019 579.478 903.201 579.86 902.68 579.86M902.676 575.959C901.471 575.959 900.494 576.975 900.494 578.23C900.494 579.483 901.471 580.5 902.676 580.5C903.882 580.5 904.859 579.483 904.859 578.23C904.859 576.975 903.882 575.959 902.676 575.959ZM863.558 580.396V576.063H862.77V580.396H863.558ZM877.641 580.396V576.063H876.852V580.396H877.641ZM894.933 580.396V576.063H894.144V580.396H894.933ZM881.243 576.644H881.587L881.626 576.083C881.468 576.064 881.308 576.055 881.148 576.054C879.473 576.054 878.394 576.95 878.394 578.23C878.394 579.509 879.473 580.404 881.148 580.404C881.324 580.404 881.454 580.394 881.626 580.377L881.587 579.815H881.243C880.051 579.815 879.269 579.197 879.269 578.225C879.269 577.252 880.057 576.644 881.243 576.644M875.067 578.649L875.06 578.655C874.485 577.593 873.254 576.48 872.504 576.064H871.967V580.396H872.709L872.678 577.049L872.687 577.038C873.623 577.682 874.635 578.927 875.17 580.396H875.78V576.064H875.037L875.067 578.649M899.08 578.649L899.072 578.655C898.498 577.593 897.267 576.48 896.517 576.064H895.979V580.396H896.721L896.691 577.049L896.699 577.038C897.636 577.682 898.648 578.927 899.182 580.396H899.793V576.064H899.048L899.08 578.649M881.87 580.396H882.616C882.616 580.396 883.783 577.63 883.826 577.539C883.88 577.633 885.266 580.396 885.266 580.396H886.158L883.838 575.975L881.87 580.396ZM912.139 575.975L910.169 580.396H910.916C910.916 580.396 912.083 577.63 912.127 577.539C912.18 577.633 913.567 580.396 913.567 580.396H914.459L912.139 575.975M864.96 577.825C865.418 577.351 866.655 576.064 866.655 576.064H865.707L863.906 577.96C864.771 578.53 865.494 579.304 865.941 580.396H866.768C866.426 579.37 865.771 578.433 864.96 577.825M906.333 576.064H905.544V580.396H908.051V579.796H906.333V576.064M910.666 576.064H907.677V576.664H908.777V580.396H909.566V576.664H910.666V576.064ZM890.945 578.191C890.867 578.342 890.756 578.629 890.681 578.832H890.67C890.597 578.634 890.486 578.346 890.407 578.195C890.032 577.411 889.435 576.332 889.079 575.957C888.87 576.34 888.044 579.671 887.872 580.396H888.662L889.286 577.546L889.298 577.541C889.568 577.957 890.097 579.032 890.414 580.011H890.937C891.23 579.097 891.775 577.951 892.046 577.535L892.056 577.541L892.69 580.396H893.48C893.306 579.671 892.481 576.34 892.272 575.957C891.908 576.332 891.325 577.411 890.945 578.191" fill="#231F20"/>
<path d="M1025.43 562.744H1009.98V553.752H1001.99V577.269H1009.98V567.821H1025.43V577.269H1033.42V553.752H1025.43V562.744M1046.76 567.82L1052.32 558.688L1057.72 567.82H1046.76ZM1049.22 553.752L1034.9 577.268H1041.01L1043.94 572.457H1060.45L1063.29 577.268H1073.05L1058.72 553.752H1049.23M1104.73 563.944C1106.64 561.452 1106.38 557.8 1102.72 555.71C1099.32 553.755 1092.82 553.036 1088.76 553.036C1082.26 553.036 1078.08 553.477 1074.53 554.086V577.269H1082.51V557.604C1085.39 557.034 1088.31 557.021 1089.4 557.072C1092.57 557.212 1094.36 557.706 1095.78 558.717C1097.25 559.768 1097.66 562.092 1095.74 563.705C1094.31 564.908 1091.41 565.852 1084.91 564.861L1083.99 566.368L1096.28 577.269H1107.15L1096.22 567.82C1098.85 567.48 1102.83 566.431 1104.73 563.944M984.481 561.879C979.868 560.982 975.949 560.425 975.949 558.928C975.949 557.272 979.118 556.845 983.61 557.321C987.857 557.77 991.862 558.882 995.598 560.471L998.435 555.817C995.416 554.667 989.193 553.195 983.543 553.027C977.353 552.848 966.903 553.403 966.451 559.662C966.039 565.391 974.203 566.76 979.556 568.005C984.777 569.221 989.672 569.66 989.672 571.468C989.672 572.739 987.947 573.731 983.384 573.389C977.891 572.978 973.218 571.477 968.557 569.161L965.459 574.247C970.629 576.268 977.41 577.891 983.519 577.992C990.782 578.113 998.982 576.941 999.168 570.721C999.32 565.529 993.942 563.716 984.481 561.879M1130.54 563.751C1129.16 564.881 1127.15 565.282 1123.96 565.273C1121.62 565.265 1119.19 564.833 1117.21 564.384V557.604C1120.08 557.034 1123.06 557.026 1124.15 557.071C1127.34 557.206 1129.2 557.746 1130.58 558.717C1132.02 559.727 1132.5 562.15 1130.54 563.751M1137.52 555.709C1134.27 553.784 1128.18 553.036 1123.51 553.036C1117.01 553.036 1112.78 553.478 1109.22 554.085V577.269H1117.21V568.775C1119.68 569.188 1122.77 569.427 1125.45 569.407C1131.99 569.352 1136.84 567.816 1139.05 565.409C1142.2 561.985 1141.15 557.85 1137.52 555.71" fill="#E6000D"/>
<path d="M123.077 181.903C122.423 181.971 121.758 181.938 121.133 181.798C121.133 181.798 109.812 179.085 104.244 196.848C104.042 197.844 103.786 198.794 103.423 199.704L103.428 199.754C101.433 204.989 96.606 208.93 90.669 209.551C82.166 210.441 74.5461 204.211 73.6494 195.637C72.7527 187.064 78.9187 179.392 87.4217 178.503C90.3399 178.198 93.0914 178.731 95.5491 179.858C95.5491 179.858 110.563 186.751 116.296 173.483C116.365 173.168 116.484 172.848 116.659 172.573L116.653 172.522C117.625 170.626 119.465 169.253 121.729 169.017C125.251 168.648 128.421 171.24 128.793 174.791C129.164 178.343 126.599 181.534 123.077 181.903Z" fill="#3671FF"/>
<path d="M164.924 148.34C165.578 148.271 166.242 148.304 166.867 148.444C166.867 148.444 178.189 151.158 183.757 133.394C183.958 132.399 184.215 131.449 184.577 130.539L184.572 130.488C186.568 125.253 191.394 121.312 197.331 120.691C205.834 119.802 213.454 126.031 214.351 134.605C215.248 143.179 209.082 150.85 200.579 151.739C197.661 152.045 194.909 151.512 192.451 150.384C192.451 150.384 177.438 143.492 171.704 156.76C171.636 157.075 171.517 157.395 171.342 157.669L171.347 157.72C170.376 159.617 168.535 160.989 166.271 161.226C162.749 161.594 159.579 159.002 159.208 155.451C158.836 151.9 161.402 148.708 164.924 148.34Z" fill="#3671FF"/>
<path d="M138.354 138.087C138.622 137.484 138.983 136.924 139.415 136.451C139.415 136.451 147.414 127.977 134.855 114.25C134.095 113.577 133.403 112.879 132.798 112.108L132.752 112.088C129.228 107.734 128.235 101.57 130.665 96.1027C134.144 88.273 143.329 84.7733 151.182 88.2858C159.034 91.7984 162.579 100.993 159.1 108.823C157.906 111.51 156.071 113.633 153.87 115.203C153.87 115.203 140.419 124.792 149.013 136.412C149.25 136.629 149.467 136.893 149.617 137.182L149.664 137.203C150.816 138.996 151.082 141.281 150.156 143.366C148.715 146.609 144.893 148.065 141.641 146.61C138.388 145.155 136.913 141.33 138.354 138.087Z" fill="#3671FF"/>
<path d="M118.194 155.814C117.807 155.28 117.503 154.686 117.311 154.074C117.311 154.074 113.988 142.886 95.8608 146.923C94.9005 147.246 93.9516 147.497 92.9844 147.637L92.9432 147.667C87.4235 148.548 81.6042 146.325 78.0964 141.479C73.0725 134.538 74.6382 124.809 81.5936 119.748C88.549 114.687 98.2601 116.21 103.284 123.15C105.008 125.532 105.925 128.188 106.181 130.886C106.181 130.886 107.744 147.367 122.071 145.719C122.378 145.622 122.714 145.565 123.039 145.58L123.08 145.55C125.204 145.446 127.31 146.359 128.648 148.207C130.729 151.082 130.077 155.13 127.196 157.226C124.315 159.323 120.275 158.689 118.194 155.814Z" fill="#3671FF"/>
<path d="M149.848 192C149.576 192.612 149.21 193.182 148.77 193.662C148.77 193.662 140.641 202.274 153.405 216.225C154.177 216.908 154.88 217.618 155.495 218.401L155.542 218.422C159.123 222.846 160.132 229.111 157.663 234.667C154.127 242.624 144.792 246.181 136.812 242.611C128.833 239.041 125.23 229.697 128.766 221.74C129.979 219.009 131.843 216.852 134.081 215.256C134.081 215.256 147.75 205.511 139.017 193.702C138.775 193.481 138.555 193.213 138.402 192.919L138.355 192.898C137.184 191.076 136.913 188.754 137.855 186.635C139.319 183.339 143.203 181.859 146.509 183.338C149.814 184.816 151.313 188.704 149.848 192Z" fill="#3671FF"/>
<path d="M169.702 173.76C170.089 174.294 170.393 174.888 170.585 175.501C170.585 175.501 173.908 186.688 192.035 182.652C192.996 182.329 193.944 182.077 194.912 181.938L194.953 181.908C200.472 181.026 206.292 183.25 209.8 188.096C214.824 195.036 213.258 204.765 206.302 209.827C199.347 214.888 189.636 213.365 184.612 206.424C182.888 204.042 181.971 201.387 181.715 198.689C181.715 198.689 180.152 182.207 165.825 183.855C165.518 183.953 165.182 184.009 164.857 183.995L164.816 184.025C162.692 184.128 160.586 183.215 159.248 181.367C157.167 178.493 157.819 174.445 160.7 172.348C163.581 170.252 167.621 170.886 169.702 173.76Z" fill="#3671FF"/>
<path d="M165.689 136.664C170.222 136.19 173.513 132.13 173.039 127.596C172.564 123.062 168.505 119.771 163.971 120.245C159.438 120.719 156.147 124.779 156.621 129.313C157.095 133.847 161.155 137.138 165.689 136.664Z" fill="white"/>
<path d="M187.794 172.954C192.328 172.479 195.618 168.42 195.144 163.886C194.67 159.352 190.61 156.061 186.077 156.535C181.543 157.009 178.253 161.069 178.727 165.603C179.201 170.137 183.261 173.428 187.794 172.954Z" fill="white"/>
<path d="M165.689 211.484C170.222 211.009 173.513 206.95 173.039 202.416C172.564 197.882 168.505 194.591 163.971 195.065C159.438 195.539 156.147 199.599 156.621 204.133C157.095 208.667 161.155 211.958 165.689 211.484Z" fill="white"/>
<path d="M123.192 210.632C127.725 210.158 131.016 206.098 130.542 201.564C130.068 197.03 126.008 193.739 121.475 194.213C116.941 194.687 113.651 198.747 114.125 203.281C114.599 207.815 118.658 211.106 123.192 210.632Z" fill="white"/>
<path d="M101.388 172.971C105.922 172.497 109.213 168.437 108.738 163.903C108.264 159.37 104.205 156.078 99.6711 156.553C95.1375 157.027 91.8468 161.087 92.321 165.62C92.7952 170.154 96.8548 173.445 101.388 172.971Z" fill="white"/>
<path d="M123.192 135.818C127.725 135.344 131.016 131.284 130.542 126.75C130.068 122.216 126.008 118.925 121.475 119.399C116.941 119.873 113.651 123.933 114.125 128.467C114.599 133.001 118.658 136.292 123.192 135.818Z" fill="white"/>
<path d="M144.995 174.64C150.307 174.085 154.162 169.315 153.605 163.987C153.047 158.659 148.289 154.791 142.977 155.346C137.664 155.902 133.809 160.672 134.366 165.999C134.924 171.327 139.682 175.196 144.995 174.64Z" fill="white"/>
<path d="M275.315 113.495H289.246L316.73 156.614V113.495H331.037V180.177H317.201L289.622 137.058V180.177H275.315V113.495Z" fill="white"/>
<path d="M369.09 113.495H383.115L409.375 180.177H394.786L389.138 165.677H363.066L357.419 180.177H342.735L369.09 113.495ZM385.374 154.134L376.055 128.758L366.737 154.134H385.374Z" fill="white"/>
<path d="M409.28 113.495H424.34L436.106 156.614L447.683 113.495H458.695L469.896 156.614L481.662 113.495H496.627L478.179 180.177H464.719L452.954 137.916L441.282 180.177H427.729L409.28 113.495Z" fill="white"/>
<path d="M522.953 113.495H536.978L563.238 180.177H548.649L543.002 165.677H516.929L511.282 180.177H496.599L522.953 113.495ZM539.237 154.134L529.919 128.758L520.6 154.134H539.237Z" fill="white"/>
<path d="M574.953 113.495H607.238C613.45 113.495 618.313 115.053 621.827 118.169C625.341 121.286 627.098 125.801 627.098 131.716C627.098 134.705 626.408 137.439 625.027 139.92C623.647 142.336 621.764 144.213 619.38 145.548C622.643 146.757 625.09 148.601 626.721 151.081C628.353 153.498 629.169 156.678 629.169 160.621C629.169 164.627 628.259 168.125 626.439 171.114C624.682 174.04 622.235 176.298 619.097 177.888C616.023 179.414 612.603 180.177 608.838 180.177H574.953V113.495ZM604.508 140.588C607.018 140.588 608.995 139.952 610.438 138.68C611.881 137.408 612.603 135.373 612.603 132.574C612.603 129.522 611.881 127.423 610.438 126.278C609.057 125.133 606.924 124.561 604.037 124.561H589.26V140.588H604.508ZM605.355 169.111C608.43 169.111 610.752 168.507 612.32 167.299C613.952 166.027 614.768 163.832 614.768 160.716C614.768 157.536 613.92 155.247 612.226 153.848C610.595 152.449 608.148 151.749 604.885 151.749H589.26V169.111H605.355Z" fill="white"/>
<path d="M674.643 181.608C667.615 181.608 661.403 180.209 656.006 177.411C650.61 174.549 646.437 170.51 643.488 165.295C640.539 160.08 639.064 153.943 639.064 146.884C639.064 139.824 640.539 133.687 643.488 128.472C646.437 123.194 650.61 119.155 656.006 116.357C661.403 113.495 667.615 112.064 674.643 112.064C679.412 112.064 683.616 112.573 687.255 113.59C690.958 114.544 694.346 116.071 697.421 118.169V132.002C694.66 129.712 691.491 128.059 687.914 127.041C684.4 125.96 680.384 125.419 675.867 125.419C671.662 125.419 667.866 126.31 664.478 128.091C661.152 129.808 658.516 132.288 656.571 135.532C654.626 138.775 653.653 142.559 653.653 146.884C653.653 151.272 654.532 155.12 656.289 158.427C658.108 161.67 660.65 164.182 663.913 165.963C667.176 167.744 670.941 168.634 675.208 168.634C679.098 168.634 682.487 167.935 685.373 166.535V153.657H674.737V142.972H699.209V175.121C692.997 179.446 684.808 181.608 674.643 181.608Z" fill="white"/>
<path d="M710.984 113.495H725.291V140.206H753.999V113.495H768.306V180.177H753.999V152.226H725.291V180.177H710.984V113.495Z" fill="white"/>
<path d="M280.504 203.228H274.987V199.794H290.132V203.228H284.615V218.698H280.504V203.228Z" fill="#3671FF"/>
<path d="M318.985 199.794H332.102V203.228H323.096V207.61H329.722V210.909H323.096V215.263H332.102V218.698H318.985V199.794Z" fill="#3671FF"/>
<path d="M370.423 219.104C368.404 219.104 366.619 218.707 365.068 217.914C363.518 217.102 362.319 215.958 361.471 214.479C360.624 213.001 360.2 211.261 360.2 209.259C360.2 207.258 360.624 205.518 361.471 204.04C362.319 202.543 363.518 201.398 365.068 200.605C366.619 199.794 368.404 199.388 370.423 199.388C373.037 199.388 375.219 199.983 376.968 201.173V205.067C376.175 204.4 375.264 203.923 374.236 203.634C373.227 203.328 372.073 203.174 370.775 203.174C368.809 203.174 367.25 203.724 366.096 204.824C364.96 205.906 364.392 207.384 364.392 209.259C364.392 211.153 364.969 212.649 366.123 213.749C367.277 214.831 368.827 215.372 370.775 215.372C372.109 215.372 373.29 215.218 374.318 214.912C375.345 214.587 376.301 214.073 377.184 213.37V217.265C375.526 218.491 373.272 219.104 370.423 219.104Z" fill="#3671FF"/>
<path d="M406.538 199.794H410.649V207.366H418.897V199.794H423.008V218.698H418.897V210.774H410.649V218.698H406.538V199.794Z" fill="#3671FF"/>
<path d="M452.863 199.794H456.865L464.763 212.018V199.794H468.873V218.698H464.898L456.974 206.474V218.698H452.863V199.794Z" fill="#3671FF"/>
<path d="M508.313 219.104C506.42 219.104 504.698 218.689 503.147 217.86C501.615 217.03 500.407 215.876 499.523 214.398C498.64 212.901 498.198 211.189 498.198 209.259C498.198 207.33 498.64 205.617 499.523 204.121C500.407 202.624 501.615 201.461 503.147 200.632C504.698 199.803 506.42 199.388 508.313 199.388C510.206 199.388 511.91 199.803 513.424 200.632C514.957 201.461 516.165 202.624 517.048 204.121C517.932 205.617 518.373 207.33 518.373 209.259C518.373 211.189 517.932 212.901 517.048 214.398C516.165 215.876 514.957 217.03 513.424 217.86C511.91 218.689 510.206 219.104 508.313 219.104ZM508.313 215.317C509.395 215.317 510.377 215.074 511.261 214.587C512.162 214.082 512.874 213.379 513.397 212.478C513.92 211.558 514.181 210.485 514.181 209.259C514.181 208.051 513.92 206.997 513.397 206.095C512.892 205.176 512.189 204.472 511.288 203.986C510.404 203.481 509.413 203.228 508.313 203.228C507.195 203.228 506.185 203.481 505.284 203.986C504.4 204.472 503.697 205.176 503.174 206.095C502.651 206.997 502.39 208.051 502.39 209.259C502.39 210.485 502.651 211.558 503.174 212.478C503.697 213.379 504.409 214.082 505.311 214.587C506.212 215.074 507.213 215.317 508.313 215.317Z" fill="#3671FF"/>
<path d="M547.679 199.794H551.789V215.263H560.444V218.698H547.679V199.794Z" fill="#3671FF"/>
<path d="M597.344 219.104C595.451 219.104 593.729 218.689 592.179 217.86C590.646 217.03 589.438 215.876 588.555 214.398C587.671 212.901 587.23 211.189 587.23 209.259C587.23 207.33 587.671 205.617 588.555 204.121C589.438 202.624 590.646 201.461 592.179 200.632C593.729 199.803 595.451 199.388 597.344 199.388C599.238 199.388 600.941 199.803 602.456 200.632C603.988 201.461 605.196 202.624 606.08 204.121C606.963 205.617 607.405 207.33 607.405 209.259C607.405 211.189 606.963 212.901 606.08 214.398C605.196 215.876 603.988 217.03 602.456 217.86C600.941 218.689 599.238 219.104 597.344 219.104ZM597.344 215.317C598.426 215.317 599.409 215.074 600.292 214.587C601.194 214.082 601.906 213.379 602.429 212.478C602.952 211.558 603.213 210.485 603.213 209.259C603.213 208.051 602.952 206.997 602.429 206.095C601.924 205.176 601.221 204.472 600.319 203.986C599.436 203.481 598.444 203.228 597.344 203.228C596.227 203.228 595.217 203.481 594.315 203.986C593.432 204.472 592.729 205.176 592.206 206.095C591.683 206.997 591.422 208.051 591.422 209.259C591.422 210.485 591.683 211.558 592.206 212.478C592.729 213.379 593.441 214.082 594.342 214.587C595.244 215.074 596.245 215.317 597.344 215.317Z" fill="#3671FF"/>
<path d="M646.392 219.104C644.373 219.104 642.588 218.707 641.037 217.914C639.487 217.102 638.288 215.958 637.44 214.479C636.593 213.001 636.169 211.261 636.169 209.259C636.169 207.258 636.593 205.518 637.44 204.04C638.288 202.543 639.487 201.398 641.037 200.605C642.588 199.794 644.373 199.388 646.392 199.388C647.763 199.388 648.971 199.532 650.016 199.821C651.08 200.091 652.054 200.524 652.937 201.119V205.04C652.144 204.391 651.233 203.923 650.206 203.634C649.196 203.328 648.042 203.174 646.744 203.174C645.536 203.174 644.445 203.427 643.471 203.932C642.516 204.418 641.759 205.122 641.2 206.041C640.641 206.961 640.361 208.033 640.361 209.259C640.361 210.503 640.614 211.594 641.119 212.532C641.641 213.451 642.372 214.164 643.309 214.668C644.247 215.173 645.329 215.426 646.555 215.426C647.672 215.426 648.646 215.227 649.475 214.831V211.18H646.419V208.151H653.451V217.265C651.666 218.491 649.313 219.104 646.392 219.104Z" fill="#3671FF"/>
<path d="M682.797 199.794H686.908V218.698H682.797V199.794Z" fill="#3671FF"/>
<path d="M716.789 199.794H729.905V203.228H720.899V207.61H727.525V210.909H720.899V215.263H729.905V218.698H716.789V199.794Z" fill="#3671FF"/>
<path d="M764.62 219.104C763.466 219.104 762.321 218.996 761.185 218.779C760.049 218.563 759.121 218.274 758.4 217.914V214.29C759.355 214.759 760.347 215.11 761.375 215.345C762.402 215.579 763.385 215.696 764.322 215.696C765.368 215.696 766.162 215.516 766.702 215.155C767.243 214.795 767.514 214.29 767.514 213.641C767.514 213.172 767.379 212.775 767.108 212.451C766.838 212.126 766.441 211.838 765.918 211.585C765.413 211.315 764.629 210.963 763.565 210.531C761.798 209.809 760.518 209.007 759.725 208.124C758.932 207.222 758.535 206.113 758.535 204.797C758.535 203.733 758.823 202.796 759.4 201.984C759.977 201.155 760.789 200.515 761.834 200.064C762.88 199.613 764.088 199.388 765.458 199.388C766.576 199.388 767.568 199.478 768.433 199.658C769.299 199.839 770.146 200.118 770.976 200.497V204.013C769.389 203.219 767.802 202.823 766.216 202.823C765.206 202.823 764.413 203.003 763.836 203.364C763.259 203.706 762.97 204.202 762.97 204.851C762.97 205.32 763.105 205.707 763.376 206.014C763.646 206.321 764.025 206.591 764.512 206.825C764.999 207.06 765.792 207.402 766.892 207.853C768.172 208.394 769.173 208.917 769.894 209.422C770.615 209.908 771.147 210.494 771.489 211.18C771.832 211.847 772.003 212.676 772.003 213.668C772.003 215.381 771.381 216.715 770.137 217.67C768.911 218.626 767.072 219.104 764.62 219.104Z" fill="#3671FF"/>
<path d="M938.481 198.871H937.206C916.805 198.731 903.489 190.027 897.397 172.478H873.738C859.713 172.478 853.621 176.97 853.621 187.78C853.621 198.029 860.28 203.223 873.738 203.223H900.939V222.176H874.872C848.38 222.176 834.496 209.12 834.496 187.78C834.496 171.916 842.855 160.123 858.013 155.49C855.746 150.436 854.613 145.382 854.613 140.469C854.613 122.639 867.505 108.459 885.497 108.459C897.397 108.459 907.314 114.777 911.989 125.587L896.122 132.887C894.28 127.412 890.738 124.745 885.213 124.745C878.272 124.745 873.313 130.922 873.313 139.626C873.313 146.927 876.005 151.559 881.247 153.525H912.98C912.98 171.635 920.914 180.059 936.922 180.059H938.481V198.871Z" fill="white"/>
<path d="M983.795 171.776C983.795 179.217 981.67 185.394 977.561 190.307C972.886 196.064 966.369 198.871 958.153 198.871H938.481V180.059H953.903C960.561 180.059 963.961 175.426 963.961 166.301V135.274H983.795V171.776Z" fill="white"/>
<path d="M1023.78 198.871H1003.95V108.319H1023.78V198.871Z" fill="white"/>
<path d="M1126.76 198.871H1108.06C1105.79 214.314 1095.02 222.036 1075.75 222.036H1073.63V206.312H1075.33C1082.98 206.312 1087.51 203.504 1089.07 198.029C1087.51 198.591 1083.55 198.871 1076.89 198.871C1058.33 198.871 1044.73 185.534 1044.73 166.862C1044.73 147.909 1058.05 135.134 1076.89 135.134C1095.02 135.134 1108.34 148.611 1108.34 167.283V180.059H1126.76V198.871ZM1088.51 180.059V166.441C1088.51 158.158 1083.55 152.823 1076.32 152.823C1068.81 152.823 1064.85 158.579 1064.85 166.02C1064.85 174.022 1069.66 180.059 1077.03 180.059H1088.51Z" fill="white"/>
<path d="M1170.96 171.776C1170.96 179.217 1168.84 185.394 1164.73 190.307C1160.05 196.064 1153.54 198.871 1145.32 198.871H1126.76V180.059H1141.07C1147.73 180.059 1151.13 175.426 1151.13 166.301V135.274H1170.96V171.776Z" fill="white"/>
<path d="M876.432 98.4914H893.999V82.2061H876.432V98.4914Z" fill="#3671FF"/>
<path d="M965.096 222.176H982.663V205.891H965.096V222.176Z" fill="#3671FF"/>
<path d="M1151.98 124.604H1169.69V108.459H1151.98V124.604Z" fill="#3671FF"/>
<rect x="73" y="316" width="598" height="46" fill="#3671FF"/>
<path d="M89.1912 332.02H92.2312V346H89.1912V332.02ZM95.1279 332.02H98.0879L103.928 341.06V332.02H106.968V346H104.028L98.1679 336.96V346H95.1279V332.02ZM109.854 332.02H112.894V338.1L118.174 332.02H121.794L115.874 338.84L122.194 346H118.574L112.894 339.58V346H109.854V332.02ZM128.174 346.3C127.321 346.3 126.474 346.22 125.634 346.06C124.794 345.9 124.107 345.687 123.574 345.42V342.74C124.281 343.087 125.014 343.347 125.774 343.52C126.534 343.693 127.261 343.78 127.954 343.78C128.727 343.78 129.314 343.647 129.714 343.38C130.114 343.113 130.314 342.74 130.314 342.26C130.314 341.913 130.214 341.62 130.014 341.38C129.814 341.14 129.521 340.927 129.134 340.74C128.761 340.54 128.181 340.28 127.394 339.96C126.087 339.427 125.141 338.833 124.554 338.18C123.967 337.513 123.674 336.693 123.674 335.72C123.674 334.933 123.887 334.24 124.314 333.64C124.741 333.027 125.341 332.553 126.114 332.22C126.887 331.887 127.781 331.72 128.794 331.72C129.621 331.72 130.354 331.787 130.994 331.92C131.634 332.053 132.261 332.26 132.874 332.54V335.14C131.701 334.553 130.527 334.26 129.354 334.26C128.607 334.26 128.021 334.393 127.594 334.66C127.167 334.913 126.954 335.28 126.954 335.76C126.954 336.107 127.054 336.393 127.254 336.62C127.454 336.847 127.734 337.047 128.094 337.22C128.454 337.393 129.041 337.647 129.854 337.98C130.801 338.38 131.541 338.767 132.074 339.14C132.607 339.5 133.001 339.933 133.254 340.44C133.507 340.933 133.634 341.547 133.634 342.28C133.634 343.547 133.174 344.533 132.254 345.24C131.347 345.947 129.987 346.3 128.174 346.3ZM143.533 338.78H150.413V341.18H143.533V338.78ZM160.709 332.02H166.589C168.176 332.02 169.442 332.44 170.389 333.28C171.336 334.107 171.809 335.26 171.809 336.74C171.809 338.26 171.336 339.427 170.389 340.24C169.456 341.053 168.189 341.46 166.589 341.46H163.749V346H160.709V332.02ZM166.149 338.92C167.869 338.92 168.729 338.193 168.729 336.74C168.729 335.927 168.496 335.36 168.029 335.04C167.576 334.72 166.949 334.56 166.149 334.56H163.749V338.92H166.149ZM174.009 332.02H180.069C181.656 332.02 182.889 332.42 183.769 333.22C184.662 334.007 185.109 335.147 185.109 336.64C185.109 337.68 184.869 338.567 184.389 339.3C183.909 340.02 183.229 340.547 182.349 340.88L185.009 346H181.889L179.429 341.26H177.049V346H174.009V332.02ZM179.529 338.72C180.302 338.72 180.909 338.553 181.349 338.22C181.802 337.887 182.029 337.36 182.029 336.64C182.029 335.88 181.809 335.347 181.369 335.04C180.929 334.72 180.316 334.56 179.529 334.56H177.049V338.72H179.529ZM187.602 332.02H190.642V346H187.602V332.02ZM193.539 332.02H196.499L202.339 341.06V332.02H205.379V346H202.439L196.579 336.96V346H193.539V332.02ZM211.605 334.56H207.525V332.02H218.725V334.56H214.645V346H211.605V334.56ZM220.862 332.02H230.562V334.56H223.902V337.8H228.802V340.24H223.902V343.46H230.562V346H220.862V332.02ZM232.833 332.02H238.893C240.48 332.02 241.713 332.42 242.593 333.22C243.487 334.007 243.933 335.147 243.933 336.64C243.933 337.68 243.693 338.567 243.213 339.3C242.733 340.02 242.053 340.547 241.173 340.88L243.833 346H240.713L238.253 341.26H235.873V346H232.833V332.02ZM238.353 338.72C239.127 338.72 239.733 338.553 240.173 338.22C240.627 337.887 240.853 337.36 240.853 336.64C240.853 335.88 240.633 335.347 240.193 335.04C239.753 334.72 239.14 334.56 238.353 334.56H235.873V338.72H238.353ZM253.819 338.78H260.699V341.18H253.819V338.78ZM270.994 332.02H274.034V343.46H280.434V346H270.994V332.02ZM287.444 332.02H290.424L296.004 346H292.904L291.704 342.96H286.164L284.964 346H281.844L287.444 332.02ZM290.904 340.54L288.924 335.22L286.944 340.54H290.904ZM298.493 332.02H304.373C305.959 332.02 307.226 332.44 308.173 333.28C309.119 334.107 309.593 335.26 309.593 336.74C309.593 338.26 309.119 339.427 308.173 340.24C307.239 341.053 305.973 341.46 304.373 341.46H301.533V346H298.493V332.02ZM303.933 338.92C305.653 338.92 306.513 338.193 306.513 336.74C306.513 335.927 306.279 335.36 305.813 335.04C305.359 334.72 304.733 334.56 303.933 334.56H301.533V338.92H303.933ZM314.625 334.56H310.545V332.02H321.745V334.56H317.665V346H314.625V334.56ZM329.868 346.3C328.468 346.3 327.195 345.993 326.048 345.38C324.915 344.767 324.021 343.913 323.368 342.82C322.715 341.713 322.388 340.447 322.388 339.02C322.388 337.593 322.715 336.327 323.368 335.22C324.021 334.113 324.915 333.253 326.048 332.64C327.195 332.027 328.468 331.72 329.868 331.72C331.268 331.72 332.528 332.027 333.648 332.64C334.781 333.253 335.675 334.113 336.328 335.22C336.981 336.327 337.308 337.593 337.308 339.02C337.308 340.447 336.981 341.713 336.328 342.82C335.675 343.913 334.781 344.767 333.648 345.38C332.528 345.993 331.268 346.3 329.868 346.3ZM329.868 343.5C330.668 343.5 331.395 343.32 332.048 342.96C332.715 342.587 333.241 342.067 333.628 341.4C334.015 340.72 334.208 339.927 334.208 339.02C334.208 338.127 334.015 337.347 333.628 336.68C333.255 336 332.735 335.48 332.068 335.12C331.415 334.747 330.681 334.56 329.868 334.56C329.041 334.56 328.295 334.747 327.628 335.12C326.975 335.48 326.455 336 326.068 336.68C325.681 337.347 325.488 338.127 325.488 339.02C325.488 339.927 325.681 340.72 326.068 341.4C326.455 342.067 326.981 342.587 327.648 342.96C328.315 343.32 329.055 343.5 329.868 343.5ZM339.779 332.02H345.659C347.246 332.02 348.513 332.44 349.459 333.28C350.406 334.107 350.879 335.26 350.879 336.74C350.879 338.26 350.406 339.427 349.459 340.24C348.526 341.053 347.259 341.46 345.659 341.46H342.819V346H339.779V332.02ZM345.219 338.92C346.939 338.92 347.799 338.193 347.799 336.74C347.799 335.927 347.566 335.36 347.099 335.04C346.646 334.72 346.019 334.56 345.219 334.56H342.819V338.92H345.219ZM360.472 338.78H367.352V341.18H360.472V338.78ZM382.847 332.02H385.827L391.407 346H388.307L387.107 342.96H381.567L380.367 346H377.247L382.847 332.02ZM386.307 340.54L384.327 335.22L382.347 340.54H386.307ZM399.963 346.3C398.47 346.3 397.15 346.007 396.003 345.42C394.856 344.82 393.97 343.973 393.343 342.88C392.716 341.787 392.403 340.5 392.403 339.02C392.403 337.54 392.716 336.253 393.343 335.16C393.97 334.053 394.856 333.207 396.003 332.62C397.15 332.02 398.47 331.72 399.963 331.72C401.896 331.72 403.51 332.16 404.803 333.04V335.92C404.216 335.427 403.543 335.073 402.783 334.86C402.036 334.633 401.183 334.52 400.223 334.52C398.77 334.52 397.616 334.927 396.763 335.74C395.923 336.54 395.503 337.633 395.503 339.02C395.503 340.42 395.93 341.527 396.783 342.34C397.636 343.14 398.783 343.54 400.223 343.54C401.21 343.54 402.083 343.427 402.843 343.2C403.603 342.96 404.31 342.58 404.963 342.06V344.94C403.736 345.847 402.07 346.3 399.963 346.3ZM414.122 346.3C412.629 346.3 411.309 346.007 410.162 345.42C409.016 344.82 408.129 343.973 407.502 342.88C406.876 341.787 406.562 340.5 406.562 339.02C406.562 337.54 406.876 336.253 407.502 335.16C408.129 334.053 409.016 333.207 410.162 332.62C411.309 332.02 412.629 331.72 414.122 331.72C416.056 331.72 417.669 332.16 418.962 333.04V335.92C418.376 335.427 417.702 335.073 416.942 334.86C416.196 334.633 415.342 334.52 414.382 334.52C412.929 334.52 411.776 334.927 410.922 335.74C410.082 336.54 409.662 337.633 409.662 339.02C409.662 340.42 410.089 341.527 410.942 342.34C411.796 343.14 412.942 343.54 414.382 343.54C415.369 343.54 416.242 343.427 417.002 343.2C417.762 342.96 418.469 342.58 419.122 342.06V344.94C417.896 345.847 416.229 346.3 414.122 346.3ZM421.629 332.02H431.329V334.56H424.669V337.8H429.569V340.24H424.669V343.46H431.329V346H421.629V332.02ZM437.801 346.3C436.948 346.3 436.101 346.22 435.261 346.06C434.421 345.9 433.735 345.687 433.201 345.42V342.74C433.908 343.087 434.641 343.347 435.401 343.52C436.161 343.693 436.888 343.78 437.581 343.78C438.355 343.78 438.941 343.647 439.341 343.38C439.741 343.113 439.941 342.74 439.941 342.26C439.941 341.913 439.841 341.62 439.641 341.38C439.441 341.14 439.148 340.927 438.761 340.74C438.388 340.54 437.808 340.28 437.021 339.96C435.715 339.427 434.768 338.833 434.181 338.18C433.595 337.513 433.301 336.693 433.301 335.72C433.301 334.933 433.515 334.24 433.941 333.64C434.368 333.027 434.968 332.553 435.741 332.22C436.515 331.887 437.408 331.72 438.421 331.72C439.248 331.72 439.981 331.787 440.621 331.92C441.261 332.053 441.888 332.26 442.501 332.54V335.14C441.328 334.553 440.155 334.26 438.981 334.26C438.235 334.26 437.648 334.393 437.221 334.66C436.795 334.913 436.581 335.28 436.581 335.76C436.581 336.107 436.681 336.393 436.881 336.62C437.081 336.847 437.361 337.047 437.721 337.22C438.081 337.393 438.668 337.647 439.481 337.98C440.428 338.38 441.168 338.767 441.701 339.14C442.235 339.5 442.628 339.933 442.881 340.44C443.135 340.933 443.261 341.547 443.261 342.28C443.261 343.547 442.801 344.533 441.881 345.24C440.975 345.947 439.615 346.3 437.801 346.3ZM449.265 346.3C448.412 346.3 447.565 346.22 446.725 346.06C445.885 345.9 445.199 345.687 444.665 345.42V342.74C445.372 343.087 446.105 343.347 446.865 343.52C447.625 343.693 448.352 343.78 449.045 343.78C449.819 343.78 450.405 343.647 450.805 343.38C451.205 343.113 451.405 342.74 451.405 342.26C451.405 341.913 451.305 341.62 451.105 341.38C450.905 341.14 450.612 340.927 450.225 340.74C449.852 340.54 449.272 340.28 448.485 339.96C447.179 339.427 446.232 338.833 445.645 338.18C445.059 337.513 444.765 336.693 444.765 335.72C444.765 334.933 444.979 334.24 445.405 333.64C445.832 333.027 446.432 332.553 447.205 332.22C447.979 331.887 448.872 331.72 449.885 331.72C450.712 331.72 451.445 331.787 452.085 331.92C452.725 332.053 453.352 332.26 453.965 332.54V335.14C452.792 334.553 451.619 334.26 450.445 334.26C449.699 334.26 449.112 334.393 448.685 334.66C448.259 334.913 448.045 335.28 448.045 335.76C448.045 336.107 448.145 336.393 448.345 336.62C448.545 336.847 448.825 337.047 449.185 337.22C449.545 337.393 450.132 337.647 450.945 337.98C451.892 338.38 452.632 338.767 453.165 339.14C453.699 339.5 454.092 339.933 454.345 340.44C454.599 340.933 454.725 341.547 454.725 342.28C454.725 343.547 454.265 344.533 453.345 345.24C452.439 345.947 451.079 346.3 449.265 346.3ZM464.313 346.3C462.913 346.3 461.639 345.993 460.493 345.38C459.359 344.767 458.466 343.913 457.813 342.82C457.159 341.713 456.833 340.447 456.833 339.02C456.833 337.593 457.159 336.327 457.813 335.22C458.466 334.113 459.359 333.253 460.493 332.64C461.639 332.027 462.913 331.72 464.313 331.72C465.713 331.72 466.973 332.027 468.093 332.64C469.226 333.253 470.119 334.113 470.773 335.22C471.426 336.327 471.753 337.593 471.753 339.02C471.753 340.447 471.426 341.713 470.773 342.82C470.119 343.913 469.226 344.767 468.093 345.38C466.973 345.993 465.713 346.3 464.313 346.3ZM464.313 343.5C465.113 343.5 465.839 343.32 466.493 342.96C467.159 342.587 467.686 342.067 468.073 341.4C468.459 340.72 468.653 339.927 468.653 339.02C468.653 338.127 468.459 337.347 468.073 336.68C467.699 336 467.179 335.48 466.513 335.12C465.859 334.747 465.126 334.56 464.313 334.56C463.486 334.56 462.739 334.747 462.073 335.12C461.419 335.48 460.899 336 460.513 336.68C460.126 337.347 459.933 338.127 459.933 339.02C459.933 339.927 460.126 340.72 460.513 341.4C460.899 342.067 461.426 342.587 462.093 342.96C462.759 343.32 463.499 343.5 464.313 343.5ZM474.224 332.02H480.284C481.871 332.02 483.104 332.42 483.984 333.22C484.877 334.007 485.324 335.147 485.324 336.64C485.324 337.68 485.084 338.567 484.604 339.3C484.124 340.02 483.444 340.547 482.564 340.88L485.224 346H482.104L479.644 341.26H477.264V346H474.224V332.02ZM479.744 338.72C480.517 338.72 481.124 338.553 481.564 338.22C482.017 337.887 482.244 337.36 482.244 336.64C482.244 335.88 482.024 335.347 481.584 335.04C481.144 334.72 480.531 334.56 479.744 334.56H477.264V338.72H479.744ZM487.817 332.02H490.857V346H487.817V332.02ZM493.754 332.02H503.454V334.56H496.794V337.8H501.694V340.24H496.794V343.46H503.454V346H493.754V332.02ZM509.926 346.3C509.072 346.3 508.226 346.22 507.386 346.06C506.546 345.9 505.859 345.687 505.326 345.42V342.74C506.032 343.087 506.766 343.347 507.526 343.52C508.286 343.693 509.012 343.78 509.706 343.78C510.479 343.78 511.066 343.647 511.466 343.38C511.866 343.113 512.066 342.74 512.066 342.26C512.066 341.913 511.966 341.62 511.766 341.38C511.566 341.14 511.272 340.927 510.886 340.74C510.512 340.54 509.932 340.28 509.146 339.96C507.839 339.427 506.892 338.833 506.306 338.18C505.719 337.513 505.426 336.693 505.426 335.72C505.426 334.933 505.639 334.24 506.066 333.64C506.492 333.027 507.092 332.553 507.866 332.22C508.639 331.887 509.532 331.72 510.546 331.72C511.372 331.72 512.106 331.787 512.746 331.92C513.386 332.053 514.012 332.26 514.626 332.54V335.14C513.452 334.553 512.279 334.26 511.106 334.26C510.359 334.26 509.772 334.393 509.346 334.66C508.919 334.913 508.706 335.28 508.706 335.76C508.706 336.107 508.806 336.393 509.006 336.62C509.206 336.847 509.486 337.047 509.846 337.22C510.206 337.393 510.792 337.647 511.606 337.98C512.552 338.38 513.292 338.767 513.826 339.14C514.359 339.5 514.752 339.933 515.006 340.44C515.259 340.933 515.386 341.547 515.386 342.28C515.386 343.547 514.926 344.533 514.006 345.24C513.099 345.947 511.739 346.3 509.926 346.3ZM525.285 338.78H532.165V341.18H525.285V338.78ZM542.461 332.02H545.421L551.261 341.06V332.02H554.301V346H551.361L545.501 336.96V346H542.461V332.02ZM557.186 332.02H566.886V334.56H560.226V337.8H565.126V340.24H560.226V343.46H566.886V346H557.186V332.02ZM572.498 334.56H568.418V332.02H579.618V334.56H575.538V346H572.498V334.56ZM581.062 332.02H584.262L586.762 341.06L589.222 332.02H591.562L593.942 341.06L596.442 332.02H599.622L595.702 346H592.842L590.342 337.14L587.862 346H584.982L581.062 332.02ZM607.897 346.3C606.497 346.3 605.224 345.993 604.077 345.38C602.944 344.767 602.05 343.913 601.397 342.82C600.744 341.713 600.417 340.447 600.417 339.02C600.417 337.593 600.744 336.327 601.397 335.22C602.05 334.113 602.944 333.253 604.077 332.64C605.224 332.027 606.497 331.72 607.897 331.72C609.297 331.72 610.557 332.027 611.677 332.64C612.81 333.253 613.704 334.113 614.357 335.22C615.01 336.327 615.337 337.593 615.337 339.02C615.337 340.447 615.01 341.713 614.357 342.82C613.704 343.913 612.81 344.767 611.677 345.38C610.557 345.993 609.297 346.3 607.897 346.3ZM607.897 343.5C608.697 343.5 609.424 343.32 610.077 342.96C610.744 342.587 611.27 342.067 611.657 341.4C612.044 340.72 612.237 339.927 612.237 339.02C612.237 338.127 612.044 337.347 611.657 336.68C611.284 336 610.764 335.48 610.097 335.12C609.444 334.747 608.71 334.56 607.897 334.56C607.07 334.56 606.324 334.747 605.657 335.12C605.004 335.48 604.484 336 604.097 336.68C603.71 337.347 603.517 338.127 603.517 339.02C603.517 339.927 603.71 340.72 604.097 341.4C604.484 342.067 605.01 342.587 605.677 342.96C606.344 343.32 607.084 343.5 607.897 343.5ZM617.808 332.02H623.868C625.455 332.02 626.688 332.42 627.568 333.22C628.462 334.007 628.908 335.147 628.908 336.64C628.908 337.68 628.668 338.567 628.188 339.3C627.708 340.02 627.028 340.547 626.148 340.88L628.808 346H625.688L623.228 341.26H620.848V346H617.808V332.02ZM623.328 338.72C624.102 338.72 624.708 338.553 625.148 338.22C625.602 337.887 625.828 337.36 625.828 336.64C625.828 335.88 625.608 335.347 625.168 335.04C624.728 334.72 624.115 334.56 623.328 334.56H620.848V338.72H623.328ZM631.401 332.02H634.441V338.1L639.721 332.02H643.341L637.421 338.84L643.741 346H640.121L634.441 339.58V346H631.401V332.02ZM649.722 346.3C648.868 346.3 648.022 346.22 647.182 346.06C646.342 345.9 645.655 345.687 645.122 345.42V342.74C645.828 343.087 646.562 343.347 647.322 343.52C648.082 343.693 648.808 343.78 649.502 343.78C650.275 343.78 650.862 343.647 651.262 343.38C651.662 343.113 651.862 342.74 651.862 342.26C651.862 341.913 651.762 341.62 651.562 341.38C651.362 341.14 651.068 340.927 650.682 340.74C650.308 340.54 649.728 340.28 648.942 339.96C647.635 339.427 646.688 338.833 646.102 338.18C645.515 337.513 645.222 336.693 645.222 335.72C645.222 334.933 645.435 334.24 645.862 333.64C646.288 333.027 646.888 332.553 647.662 332.22C648.435 331.887 649.328 331.72 650.342 331.72C651.168 331.72 651.902 331.787 652.542 331.92C653.182 332.053 653.808 332.26 654.422 332.54V335.14C653.248 334.553 652.075 334.26 650.902 334.26C650.155 334.26 649.568 334.393 649.142 334.66C648.715 334.913 648.502 335.28 648.502 335.76C648.502 336.107 648.602 336.393 648.802 336.62C649.002 336.847 649.282 337.047 649.642 337.22C650.002 337.393 650.588 337.647 651.402 337.98C652.348 338.38 653.088 338.767 653.622 339.14C654.155 339.5 654.548 339.933 654.802 340.44C655.055 340.933 655.182 341.547 655.182 342.28C655.182 343.547 654.722 344.533 653.802 345.24C652.895 345.947 651.535 346.3 649.722 346.3Z" fill="white"/>
<rect width="509" height="46" transform="translate(671 316)" fill="#3671FF"/>
<path d="M697.394 343.74C697.394 345.58 696.934 346.9 695.994 347.72C695.134 348.5 693.734 348.88 691.814 348.88V346.62C693.654 346.62 694.574 345.74 694.574 343.98V336.52H697.394V343.74Z" fill="white"/>
<path d="M706.872 345.58H703.621C701.481 345.58 700.241 344.34 700.241 342.28V332.68H703.041V340.82C703.041 342.18 703.381 342.9 705.441 342.9H706.872V345.58Z" fill="white"/>
<path d="M716.127 345.58H706.628V342.9H708.468C709.408 342.9 709.888 342.26 709.888 340.98V336.52H712.708V340.88C712.708 341.62 712.588 342.28 712.368 342.9H716.127V345.58ZM712.428 348.9H709.948V346.58H712.428V348.9Z" fill="white"/>
<path d="M730.161 345.58H715.861V342.9H727.181C727.061 340.64 725.341 338.88 723.001 338.88C721.801 338.88 720.441 339.5 719.641 340.32C719.361 339.94 718.901 339.32 718.241 338.42C719.601 337 721.261 336.3 723.201 336.3C727.781 336.32 730.161 339.44 730.161 344.66V345.58Z" fill="white"/>
<path d="M735.812 345.58H733.012V332.68H735.812V345.58ZM736.172 331.58H732.592V330.56H733.372C733.312 330.38 733.292 330.2 733.292 330.04C733.292 329.14 733.932 328.44 734.792 328.44C735.432 328.44 735.872 328.76 736.132 329.38L735.232 329.8C735.152 329.52 735.012 329.38 734.792 329.38C734.492 329.38 734.332 329.58 734.332 329.98C734.332 330.28 734.432 330.48 734.612 330.54H736.172V331.58Z" fill="white"/>
<path d="M752.907 342.44H743.047V340.06H752.907V342.44Z" fill="white"/>
<path d="M771.824 336.52H769.324V334.2H771.824V336.52ZM768.044 336.52H765.544V334.2H768.044V336.52ZM777.164 342.28C777.164 344.36 775.944 345.58 773.784 345.58H766.544C762.124 345.58 759.924 343.72 759.924 339.98V336.5H762.684V339.98C762.684 341.16 763.064 341.98 763.804 342.4C764.384 342.74 765.304 342.9 766.604 342.9H771.764C772.564 342.9 773.104 342.84 773.404 342.7C774.064 342.42 774.404 341.8 774.404 340.86V336.52H777.164V342.28Z" fill="white"/>
<path d="M786.692 345.58H783.38C781.24 345.58 780 344.34 780 342.28V332.68H782.8V340.82C782.8 342.18 783.14 342.9 785.2 342.9H786.692V345.58Z" fill="white"/>
<path d="M803.287 345.58H798.127C796.967 345.58 795.927 345.12 795.027 344.18C794.547 344.58 793.927 344.92 793.147 345.18C792.307 345.44 791.487 345.58 790.667 345.58H786.267V342.9H790.627C791.607 342.9 792.487 342.68 793.227 342.22C792.927 341.8 792.407 341.38 791.707 340.94C790.867 340.42 790.047 340.08 789.267 339.94V337.64C791.087 336.56 792.947 336.02 794.807 336.02C797.027 336.02 799.087 336.76 800.987 338.22C800.767 338.76 800.267 339.48 799.527 340.34C798.707 341.28 797.947 341.96 797.227 342.4C797.587 342.74 798.087 342.9 798.727 342.9H803.287V345.58ZM797.527 338.96C796.667 338.52 795.827 338.3 795.007 338.3C794.207 338.3 793.407 338.48 792.627 338.86C793.227 339.12 793.707 339.4 794.067 339.66C794.427 339.92 794.847 340.32 795.307 340.86C795.707 340.68 796.147 340.36 796.607 339.94C797.027 339.58 797.347 339.26 797.527 338.96Z" fill="white"/>
<path d="M809.437 341.72C809.437 342.78 809.137 343.66 808.557 344.36C807.897 345.18 806.977 345.58 805.817 345.58H802.998V342.9H805.217C806.157 342.9 806.637 342.24 806.637 340.94V336.52H809.437V341.72ZM809.277 348.9H806.797V346.58H809.277V348.9Z" fill="white"/>
<path d="M818.303 345.58H815.663C813.523 345.58 812.283 344.34 812.283 342.28V332.68H815.083V340.82C815.083 342.18 815.423 342.9 817.483 342.9H818.303V345.58Z" fill="white"/>
<path d="M835.47 345.58H817.87V342.9H821.97V332.7H824.75L824.49 339.24C826.29 337.36 828.09 336.48 830.07 336.48C833.67 336.48 835.57 339.26 835.57 343.74C835.57 344.34 835.53 344.96 835.47 345.58ZM832.63 342.9C832.65 342.76 832.65 342.64 832.65 342.5C832.65 340.42 831.61 338.92 829.87 338.92C827.81 338.92 825.97 340.26 824.43 342.9H832.63Z" fill="white"/>
<path d="M852.275 342.44H842.415V340.06H852.275V342.44Z" fill="white"/>
<path d="M876.532 342.28C876.532 344.36 875.312 345.58 873.152 345.58H865.912C861.492 345.58 859.292 343.72 859.292 339.98V336.5H862.052V339.98C862.052 341.16 862.432 341.98 863.172 342.4C863.752 342.74 864.672 342.9 865.972 342.9H871.132C871.932 342.9 872.472 342.84 872.772 342.7C873.432 342.42 873.772 341.8 873.772 340.86V336.52H876.532V342.28ZM869.412 348.9H866.932V346.58H869.412V348.9Z" fill="white"/>
<path d="M890.788 345.58H888.148C887.828 347.78 886.308 348.88 883.588 348.88H883.288V346.64H883.528C884.608 346.64 885.248 346.24 885.468 345.46C885.248 345.54 884.688 345.58 883.748 345.58C881.128 345.58 879.208 343.68 879.208 341.02C879.208 338.32 881.088 336.5 883.748 336.5C886.308 336.5 888.188 338.42 888.188 341.08V342.9H890.788V345.58ZM885.388 342.9V340.96C885.388 339.78 884.688 339.02 883.668 339.02C882.608 339.02 882.048 339.84 882.048 340.9C882.048 342.04 882.728 342.9 883.768 342.9H885.388Z" fill="white"/>
<path d="M896.869 335H894.389V332.7H896.869V335ZM893.109 335H890.629V332.7H893.109V335ZM900.029 345.58H890.498V342.9H892.849C893.789 342.9 894.269 342.26 894.269 340.98V336.52H897.089V340.88C897.089 341.62 896.969 342.28 896.749 342.9H900.029V345.58Z" fill="white"/>
<path d="M906.423 341.72C906.423 342.78 906.123 343.66 905.543 344.36C904.883 345.18 903.963 345.58 902.803 345.58H899.839V342.9H902.203C903.143 342.9 903.623 342.24 903.623 340.94V336.52H906.423V341.72ZM906.263 348.9H903.783V346.58H906.263V348.9Z" fill="white"/>
<path d="M919.348 342.3C919.348 343.28 919.028 344.06 918.368 344.68C917.708 345.28 916.888 345.58 915.908 345.58H909.268V342.9H912.248L909.728 334.04H912.688L915.168 342.9C916.108 342.88 916.588 342.2 916.588 340.86V332.7H919.348V342.3Z" fill="white"/>
<path d="M936.038 342.44H926.178V340.06H936.038V342.44Z" fill="white"/>
<path d="M954.956 336.52H952.456V334.2H954.956V336.52ZM951.176 336.52H948.676V334.2H951.176V336.52ZM960.296 342.28C960.296 344.36 959.076 345.58 956.916 345.58H949.676C945.256 345.58 943.056 343.72 943.056 339.98V336.5H945.816V339.98C945.816 341.16 946.196 341.98 946.936 342.4C947.516 342.74 948.436 342.9 949.736 342.9H954.896C955.696 342.9 956.236 342.84 956.536 342.7C957.196 342.42 957.536 341.8 957.536 340.86V336.52H960.296V342.28Z" fill="white"/>
<path d="M965.931 345.58H963.131V332.68H965.931V345.58Z" fill="white"/>
<path d="M974.248 343.74C974.248 345.58 973.788 346.9 972.848 347.72C971.988 348.5 970.588 348.88 968.668 348.88V346.62C970.508 346.62 971.428 345.74 971.428 343.98V336.52H974.248V343.74Z" fill="white"/>
<path d="M979.894 345.58H977.094V332.68H979.894V345.58Z" fill="white"/>
<path d="M994.432 345.58H991.792C991.472 347.78 989.952 348.88 987.232 348.88H986.932V346.64H987.172C988.252 346.64 988.892 346.24 989.112 345.46C988.892 345.54 988.332 345.58 987.392 345.58C984.772 345.58 982.852 343.68 982.852 341.02C982.852 338.32 984.732 336.5 987.392 336.5C989.952 336.5 991.832 338.42 991.832 341.08V342.9H994.432V345.58ZM989.032 342.9V340.96C989.032 339.78 988.332 339.02 987.312 339.02C986.252 339.02 985.692 339.84 985.692 340.9C985.692 342.04 986.372 342.9 987.412 342.9H989.032Z" fill="white"/>
<path d="M1015.23 345.58H993.76V342.9H996.753C997.673 342.9 998.173 342.4 998.173 341V336.52H1000.99V340.88C1000.99 341.62 1000.87 342.3 1000.65 342.9H1002.43C1003.37 342.9 1003.85 342.3 1003.85 341.1V336.52H1006.65V340.88C1006.65 341.62 1006.53 342.3 1006.31 342.9H1008.09C1009.03 342.9 1009.51 342.3 1009.51 341.1V336.52H1012.33V340.86C1012.33 341.6 1012.21 342.28 1011.97 342.9H1015.23V345.58Z" fill="white"/>
<path d="M1036.13 345.58H1015L1015.07 342.9H1017.65C1018.57 342.9 1019.07 342.4 1019.07 341V336.52H1021.89V340.88C1021.89 341.62 1021.77 342.3 1021.55 342.9H1023.33C1024.27 342.9 1024.75 342.3 1024.75 341.1V336.52H1027.55V340.88C1027.55 341.62 1027.43 342.3 1027.21 342.9H1028.99C1029.93 342.9 1030.41 342.3 1030.41 341.1V336.52H1033.23V340.86C1033.23 341.6 1033.11 342.28 1032.87 342.9H1036.13V345.58Z" fill="white"/>
<path d="M1050.35 345.58H1035.79V342.9H1047.31C1047.03 340.72 1045.37 339.08 1043.25 339.08H1038.21L1042.21 332.7H1045.53L1043.01 336.5H1044.55C1048.37 336.9 1050.35 339.84 1050.35 344.54V345.58Z" fill="white"/>
<path d="M1055.98 345.58H1053.18V332.68H1055.98V345.58ZM1056.2 349.56H1052.6V348.54H1053.4C1053.34 348.34 1053.3 348.16 1053.3 348C1053.3 347.1 1053.94 346.4 1054.84 346.4C1055.46 346.4 1055.92 346.72 1056.18 347.34L1055.28 347.76C1055.18 347.5 1055.02 347.36 1054.82 347.36C1054.52 347.36 1054.36 347.56 1054.36 347.96C1054.36 348.26 1054.44 348.46 1054.62 348.52H1056.2V349.56Z" fill="white"/>
<path d="M1072.94 342.44H1063.08V340.06H1072.94V342.44Z" fill="white"/>
<path d="M1091.86 336.52H1089.36V334.2H1091.86V336.52ZM1088.08 336.52H1085.58V334.2H1088.08V336.52ZM1097.2 342.28C1097.2 344.36 1095.98 345.58 1093.82 345.58H1086.58C1082.16 345.58 1079.96 343.72 1079.96 339.98V336.5H1082.72V339.98C1082.72 341.16 1083.1 341.98 1083.84 342.4C1084.42 342.74 1085.34 342.9 1086.64 342.9H1091.8C1092.6 342.9 1093.14 342.84 1093.44 342.7C1094.1 342.42 1094.44 341.8 1094.44 340.86V336.52H1097.2V342.28Z" fill="white"/>
<path d="M1106.8 345.58H1103.42C1101.28 345.58 1100.04 344.34 1100.04 342.28V332.68H1102.84V340.82C1102.84 342.18 1103.18 342.9 1105.24 342.9H1106.8V345.58Z" fill="white"/>
<path d="M1122.18 345.58H1106.44V342.9H1117.44C1117.3 341.82 1116.86 340.92 1116.16 340.22C1115.4 339.46 1114.48 339.08 1113.4 339.08H1108.36L1112.32 332.7H1115.66L1113.16 336.5H1114.66C1115.64 336.6 1116.52 336.86 1117.26 337.3C1119.04 338.36 1120.08 340.22 1120.38 342.9H1122.18V345.58Z" fill="white"/>
<path d="M1132.22 345.58H1122.18V342.9H1125.04C1125.98 342.9 1126.46 342.26 1126.46 340.98V336.52H1129.28V340.88C1129.28 341.62 1129.16 342.28 1128.94 342.9H1132.22V345.58ZM1129 348.9H1126.52V346.58H1129V348.9Z" fill="white"/>
<path d="M1153.17 345.58H1132.17V342.9H1134.69C1135.61 342.9 1136.11 342.4 1136.11 341V336.52H1138.93V340.88C1138.93 341.62 1138.81 342.3 1138.59 342.9H1140.37C1141.31 342.9 1141.79 342.3 1141.79 341.1V336.52H1144.59V340.88C1144.59 341.62 1144.47 342.3 1144.25 342.9H1146.03C1146.97 342.9 1147.45 342.3 1147.45 341.1V336.52H1150.27V340.86C1150.27 341.6 1150.15 342.28 1149.91 342.9H1153.17V345.58ZM1142.47 335H1139.97V332.7H1142.47V335ZM1144.31 331.7H1141.83V329.4H1144.31V331.7ZM1146.23 335H1143.75V332.7H1146.23V335Z" fill="white"/>
<path d="M1159.35 341.72C1159.35 342.78 1159.05 343.66 1158.47 344.36C1157.81 345.18 1156.89 345.58 1155.71 345.58H1153.07V342.9H1155.13C1156.07 342.9 1156.55 342.24 1156.55 340.94V332.7H1159.35V341.72Z" fill="white"/>
<path d="M1165 345.58H1162.2V332.68H1165V345.58Z" fill="white"/>
<path d="M74.906 431.525H78.906L82.031 442.825L85.106 431.525H88.031L91.006 442.825L94.131 431.525H98.106L93.206 449H89.631L86.506 437.925L83.406 449H79.806L74.906 431.525ZM101.235 431.525H105.035V438.525H112.66V431.525H116.46V449H112.66V441.675H105.035V449H101.235V431.525ZM128.907 449.375C127.157 449.375 125.566 448.992 124.132 448.225C122.716 447.458 121.599 446.392 120.782 445.025C119.966 443.642 119.557 442.058 119.557 440.275C119.557 438.492 119.966 436.908 120.782 435.525C121.599 434.142 122.716 433.067 124.132 432.3C125.566 431.533 127.157 431.15 128.907 431.15C130.657 431.15 132.232 431.533 133.632 432.3C135.049 433.067 136.166 434.142 136.982 435.525C137.799 436.908 138.207 438.492 138.207 440.275C138.207 442.058 137.799 443.642 136.982 445.025C136.166 446.392 135.049 447.458 133.632 448.225C132.232 448.992 130.657 449.375 128.907 449.375ZM128.907 445.875C129.907 445.875 130.816 445.65 131.632 445.2C132.466 444.733 133.124 444.083 133.607 443.25C134.091 442.4 134.332 441.408 134.332 440.275C134.332 439.158 134.091 438.183 133.607 437.35C133.141 436.5 132.491 435.85 131.657 435.4C130.841 434.933 129.924 434.7 128.907 434.7C127.874 434.7 126.941 434.933 126.107 435.4C125.291 435.85 124.641 436.5 124.157 437.35C123.674 438.183 123.432 439.158 123.432 440.275C123.432 441.408 123.674 442.4 124.157 443.25C124.641 444.083 125.299 444.733 126.132 445.2C126.966 445.65 127.891 445.875 128.907 445.875ZM141.297 431.525H145.097V445.825H153.097V449H141.297V431.525ZM155.358 431.525H167.483V434.7H159.158V438.75H165.283V441.8H159.158V445.825H167.483V449H155.358V431.525ZM175.573 449.375C174.506 449.375 173.448 449.275 172.398 449.075C171.348 448.875 170.49 448.608 169.823 448.275V444.925C170.706 445.358 171.623 445.683 172.573 445.9C173.523 446.117 174.431 446.225 175.298 446.225C176.265 446.225 176.998 446.058 177.498 445.725C177.998 445.392 178.248 444.925 178.248 444.325C178.248 443.892 178.123 443.525 177.873 443.225C177.623 442.925 177.256 442.658 176.773 442.425C176.306 442.175 175.581 441.85 174.598 441.45C172.965 440.783 171.781 440.042 171.048 439.225C170.315 438.392 169.948 437.367 169.948 436.15C169.948 435.167 170.215 434.3 170.748 433.55C171.281 432.783 172.031 432.192 172.998 431.775C173.965 431.358 175.081 431.15 176.348 431.15C177.381 431.15 178.298 431.233 179.098 431.4C179.898 431.567 180.681 431.825 181.448 432.175V435.425C179.981 434.692 178.515 434.325 177.048 434.325C176.115 434.325 175.381 434.492 174.848 434.825C174.315 435.142 174.048 435.6 174.048 436.2C174.048 436.633 174.173 436.992 174.423 437.275C174.673 437.558 175.023 437.808 175.473 438.025C175.923 438.242 176.656 438.558 177.673 438.975C178.856 439.475 179.781 439.958 180.448 440.425C181.115 440.875 181.606 441.417 181.923 442.05C182.24 442.667 182.398 443.433 182.398 444.35C182.398 445.933 181.823 447.167 180.673 448.05C179.54 448.933 177.84 449.375 175.573 449.375ZM190.909 431.525H194.634L201.609 449H197.734L196.234 445.2H189.309L187.809 449H183.909L190.909 431.525ZM195.234 442.175L192.759 435.525L190.284 442.175H195.234ZM204.72 431.525H208.52V445.825H216.52V449H204.72V431.525ZM218.782 431.525H230.907V434.7H222.582V438.75H228.707V441.8H222.582V445.825H230.907V449H218.782V431.525ZM242.987 439.975H251.587V442.975H242.987V439.975ZM264.457 431.525H272.032C274.015 431.525 275.557 432.025 276.657 433.025C277.773 434.008 278.332 435.433 278.332 437.3C278.332 438.6 278.032 439.708 277.432 440.625C276.832 441.525 275.982 442.183 274.882 442.6L278.207 449H274.307L271.232 443.075H268.257V449H264.457V431.525ZM271.357 439.9C272.323 439.9 273.082 439.692 273.632 439.275C274.198 438.858 274.482 438.2 274.482 437.3C274.482 436.35 274.207 435.683 273.657 435.3C273.107 434.9 272.34 434.7 271.357 434.7H268.257V439.9H271.357ZM281.448 431.525H293.573V434.7H285.248V438.75H291.373V441.8H285.248V445.825H293.573V449H281.448V431.525ZM300.588 434.7H295.488V431.525H309.488V434.7H304.388V449H300.588V434.7ZM315.534 431.525H319.259L326.234 449H322.359L320.859 445.2H313.934L312.434 449H308.534L315.534 431.525ZM319.859 442.175L317.384 435.525L314.909 442.175H319.859ZM329.345 431.525H333.145V449H329.345V431.525ZM336.766 431.525H340.566V445.825H348.566V449H336.766V431.525Z" fill="white"/>
<path d="M1028 441L1026.85 441C1024.83 441 1023.33 440.5 1022.35 439.525C1021.58 442.9 1018.03 445.15 1013.95 445.15C1008.95 445.15 1005 441.475 1005 436.625V433.625H1008.5V436.3C1008.5 439.65 1010.47 441.9 1014.02 441.9C1016.73 441.9 1019.3 440.2 1019.3 437.875C1019.3 436.55 1018.17 435.675 1016.98 435.675C1016.77 435.675 1016.58 435.7 1016.38 435.75V432.7C1016.38 432.675 1016.88 432.675 1017.9 432.675C1020.43 432.675 1022.3 433.825 1023.5 436.125C1024.1 437.275 1024.98 437.65 1026.48 437.65H1028V441ZM1018.23 450.35H1015.12V447.475H1018.23V450.35ZM1013.53 450.35H1010.4V447.475H1013.53V450.35Z" fill="white"/>
<path d="M1034.98 429.675H1028.48V427.825H1029.9C1029.78 427.475 1029.73 427.15 1029.73 426.85C1029.73 425.225 1030.9 423.95 1032.5 423.95C1033.63 423.95 1034.45 424.525 1034.95 425.65L1033.28 426.425C1033.13 425.925 1032.85 425.675 1032.45 425.675C1031.9 425.675 1031.63 426.05 1031.63 426.775C1031.63 427.325 1031.8 427.675 1032.15 427.8H1034.98V429.675ZM1034.98 436.175C1034.98 437.5 1034.6 438.6 1033.88 439.475C1033.05 440.5 1031.9 441 1030.43 441H1027.55V437.65H1029.7C1030.4 437.65 1030.9 437.4 1031.18 436.875C1031.38 436.5 1031.48 435.95 1031.48 435.2V431.05H1034.98V436.175Z" fill="white"/>
<path d="M1047 441L1042.77 441C1040.09 441 1038.54 439.45 1038.54 436.875V424.875H1042.04V435.05C1042.04 436.75 1042.47 437.65 1045.04 437.65H1047V441Z" fill="white"/>
<path d="M1070.37 441H1046.65V437.65H1050.65V424.9H1054.12L1053.8 433.075C1056.05 430.725 1058.3 429.625 1060.8 429.625C1064.92 429.625 1067.27 432.525 1067.65 437.65H1070.37V441ZM1063.97 437.65C1064 437.475 1064 437.325 1064 437.15C1064 434.55 1062.7 432.675 1060.52 432.675C1057.95 432.675 1055.65 434.35 1053.72 437.65H1063.97Z" fill="white"/>
<path d="M1083.54 427.775H1080.44V424.9H1083.54V427.775ZM1078.82 427.775H1075.72V424.9H1078.82V427.775ZM1085.57 435.3C1085.57 437 1085.04 438.375 1083.99 439.425C1082.97 440.475 1081.57 441 1079.84 441H1070V437.65H1074.44C1074.17 436.925 1074.04 436.15 1074.04 435.325C1074.04 431.85 1076.22 429.65 1079.69 429.65C1081.44 429.65 1082.87 430.15 1083.94 431.15C1085.02 432.125 1085.57 433.525 1085.57 435.3ZM1082.09 435.4C1082.09 433.425 1081.34 432.45 1079.87 432.45H1079.62C1078.92 432.45 1078.37 432.75 1077.97 433.375C1077.64 433.9 1077.47 434.55 1077.47 435.275C1077.47 436.1 1077.64 436.75 1078.02 437.275C1078.44 437.875 1079.04 438.175 1079.82 438.175C1080.54 438.175 1081.12 437.9 1081.54 437.325C1081.92 436.8 1082.09 436.175 1082.09 435.4Z" fill="white"/>
<path d="M1106.43 437.075H1094.1V434.1H1106.43V437.075Z" fill="white"/>
<path d="M1125.8 424.9H1122.7V422H1125.8V424.9ZM1121.1 424.9H1118V422H1121.1V424.9ZM1131.92 441H1127.87C1125.87 441 1124.47 439.975 1123.67 437.925C1123.05 438.9 1121.85 439.425 1120.12 439.425C1117.12 439.425 1115.2 436.825 1115.2 433.375C1115.2 429.65 1117.07 427.25 1120.37 427.25C1120.37 427.225 1122.6 427.225 1127.05 427.225V435.1C1127.05 436.75 1127.9 437.65 1129.6 437.65H1131.92V441ZM1123.45 433.1V429.8H1121.15C1119.72 429.8 1118.67 431.375 1118.67 433.325C1118.67 435.075 1119.67 436.525 1121.07 436.525C1122.55 436.525 1123.45 435.15 1123.45 433.1Z" fill="white"/>
<path d="M1142.95 441H1131.6V437.65H1133.97C1135.15 437.65 1135.75 436.85 1135.75 435.25V424.9H1139.27V435.125C1139.27 436.05 1139.12 436.875 1138.85 437.65H1142.95V441Z" fill="white"/>
<path d="M1160.78 441H1156.52C1155.49 442.425 1153.92 443.15 1151.84 443.15C1149.72 443.15 1148.14 442.425 1147.09 441L1142.5 441V437.65H1146.07C1146.07 434.05 1148.12 431.8 1151.74 431.8C1155.39 431.8 1157.59 433.975 1157.59 437.65H1160.78V441ZM1154.12 437.575C1154.12 435.6 1153.37 434.6 1151.89 434.6H1151.64C1150.37 434.6 1149.52 435.8 1149.52 437.425C1149.52 439.1 1150.37 440.3 1151.84 440.3C1153.27 440.3 1154.12 439.25 1154.12 437.575Z" fill="white"/>
<path d="M1178.43 441H1160.55V437.65H1174.7C1174.55 434.825 1172.4 432.625 1169.48 432.625C1167.98 432.625 1166.28 433.4 1165.28 434.425C1164.93 433.95 1164.35 433.175 1163.53 432.05C1165.23 430.275 1167.3 429.4 1169.73 429.4C1175.45 429.425 1178.43 433.325 1178.43 439.85V441ZM1171.65 445.15H1168.53V442.25H1171.65V445.15Z" fill="white"/>
<path d="M737.842 428.9H734.742V426H737.842V428.9ZM733.142 428.9H730.042V426H733.142V428.9ZM744 445H739.917C737.917 445 736.517 443.975 735.717 441.925C735.092 442.9 733.892 443.425 732.167 443.425C729.167 443.425 727.242 440.825 727.242 437.375C727.242 433.65 729.117 431.25 732.417 431.25C732.417 431.225 734.642 431.225 739.092 431.225V439.1C739.092 440.75 739.942 441.65 741.642 441.65H744V445ZM735.492 437.1V433.8H733.192C731.767 433.8 730.717 435.375 730.717 437.325C730.717 439.075 731.717 440.525 733.117 440.525C734.592 440.525 735.492 439.15 735.492 437.1Z" fill="white"/>
<path d="M751.02 431.775H747.895V428.9H751.02V431.775ZM751.245 440.175C751.245 441.5 750.87 442.6 750.145 443.475C749.32 444.5 748.17 445 746.72 445H743.745V441.65H745.97C747.145 441.65 747.745 440.825 747.745 439.2V433.675H751.245V440.175Z" fill="white"/>
<path d="M763.236 445H759.027C756.352 445 754.802 443.45 754.802 440.875V428.875H758.302V439.05C758.302 440.75 758.727 441.65 761.302 441.65H763.236V445Z" fill="white"/>
<path d="M774.135 445H762.885V441.65H765.185C766.36 441.65 766.935 440.85 766.935 439.25V433.675H770.46V439.125C770.46 440.05 770.335 440.875 770.06 441.65H774.135V445ZM770.11 449.15H767.01V446.25H770.11V449.15ZM765.41 449.15H762.31V446.25H765.41V449.15Z" fill="white"/>
<path d="M797.201 445H774.076V441.65H777.226C778.376 441.65 779.001 441.05 779.001 439.25V434.875H782.501V438.2C784.726 435.325 787.651 433.625 790.451 433.625C794.926 433.625 797.326 437.05 797.326 442.7C797.326 443.45 797.276 444.225 797.201 445ZM793.651 441.65L793.676 441.2C793.676 438.625 792.401 436.675 790.201 436.675C787.626 436.675 785.326 438.35 783.401 441.65H793.651Z" fill="white"/>
<path d="M477.72 431.525H485.07C487.053 431.525 488.637 432.05 489.82 433.1C491.003 434.133 491.595 435.575 491.595 437.425C491.595 439.325 491.003 440.783 489.82 441.8C488.653 442.817 487.07 443.325 485.07 443.325H481.52V449H477.72V431.525ZM484.52 440.15C486.67 440.15 487.745 439.242 487.745 437.425C487.745 436.408 487.453 435.7 486.87 435.3C486.303 434.9 485.52 434.7 484.52 434.7H481.52V440.15H484.52ZM494.345 431.525H498.145V438.525H505.77V431.525H509.57V449H505.77V441.675H498.145V449H494.345V431.525ZM524.307 440.475C523.791 440.475 523.341 440.292 522.957 439.925C522.591 439.542 522.407 439.092 522.407 438.575C522.407 438.058 522.591 437.617 522.957 437.25C523.341 436.867 523.791 436.675 524.307 436.675C524.841 436.675 525.291 436.858 525.657 437.225C526.024 437.592 526.207 438.042 526.207 438.575C526.207 439.092 526.016 439.542 525.632 439.925C525.266 440.292 524.824 440.475 524.307 440.475ZM524.307 448.7C523.791 448.7 523.341 448.517 522.957 448.15C522.591 447.767 522.407 447.317 522.407 446.8C522.407 446.283 522.591 445.842 522.957 445.475C523.341 445.092 523.791 444.9 524.307 444.9C524.841 444.9 525.291 445.083 525.657 445.45C526.024 445.817 526.207 446.267 526.207 446.8C526.207 447.317 526.016 447.767 525.632 448.15C525.266 448.517 524.824 448.7 524.307 448.7ZM546.368 449.375C544.784 449.375 543.401 449.017 542.218 448.3C541.051 447.567 540.151 446.517 539.518 445.15C538.884 443.767 538.568 442.142 538.568 440.275C538.568 438.392 538.876 436.767 539.493 435.4C540.126 434.033 541.026 432.983 542.193 432.25C543.376 431.517 544.768 431.15 546.368 431.15C547.968 431.15 549.351 431.517 550.518 432.25C551.684 432.983 552.576 434.033 553.193 435.4C553.826 436.767 554.143 438.392 554.143 440.275C554.143 442.142 553.826 443.767 553.193 445.15C552.559 446.517 551.659 447.567 550.493 448.3C549.326 449.017 547.951 449.375 546.368 449.375ZM546.368 445.875C547.618 445.875 548.584 445.383 549.268 444.4C549.951 443.417 550.293 442.058 550.293 440.325C550.293 438.575 549.951 437.2 549.268 436.2C548.601 435.2 547.634 434.7 546.368 434.7C545.101 434.7 544.126 435.2 543.443 436.2C542.776 437.2 542.443 438.575 542.443 440.325C542.443 442.058 542.784 443.417 543.468 444.4C544.151 445.383 545.118 445.875 546.368 445.875ZM562.004 449.375C561.038 449.375 560.079 449.267 559.129 449.05C558.196 448.85 557.413 448.567 556.779 448.2V444.925C557.513 445.392 558.329 445.758 559.229 446.025C560.146 446.275 561.013 446.4 561.829 446.4C563.129 446.4 564.104 446.15 564.754 445.65C565.404 445.133 565.729 444.392 565.729 443.425C565.729 442.492 565.404 441.775 564.754 441.275C564.121 440.775 563.221 440.525 562.054 440.525C561.471 440.525 560.854 440.583 560.204 440.7C559.571 440.817 559.013 440.975 558.529 441.175L557.004 440.3L557.704 431.525H568.429V434.65H561.279L561.004 438.025C561.921 437.825 562.838 437.725 563.754 437.725C565.588 437.725 567.013 438.225 568.029 439.225C569.063 440.208 569.579 441.583 569.579 443.35C569.579 445.267 568.938 446.75 567.654 447.8C566.388 448.85 564.504 449.375 562.004 449.375ZM579.908 445.125H571.708V442.825L580.058 431.525H583.808V442.2H586.383V445.125H583.808V449H579.908V445.125ZM580.458 442.2V436.05L575.958 442.2H580.458ZM595.441 449.375C593.324 449.375 591.641 448.917 590.391 448C589.141 447.083 588.516 445.775 588.516 444.075C588.516 443.042 588.766 442.175 589.266 441.475C589.766 440.758 590.432 440.242 591.266 439.925C590.582 439.542 590.049 439.017 589.666 438.35C589.299 437.683 589.116 436.942 589.116 436.125C589.116 434.575 589.682 433.358 590.816 432.475C591.966 431.592 593.507 431.15 595.441 431.15C597.374 431.15 598.907 431.592 600.041 432.475C601.174 433.358 601.741 434.575 601.741 436.125C601.741 436.958 601.549 437.708 601.166 438.375C600.799 439.025 600.274 439.542 599.591 439.925C600.424 440.242 601.091 440.758 601.591 441.475C602.091 442.175 602.341 443.042 602.341 444.075C602.341 445.775 601.716 447.083 600.466 448C599.232 448.917 597.557 449.375 595.441 449.375ZM595.441 438.95C596.224 438.95 596.866 438.725 597.366 438.275C597.866 437.825 598.116 437.242 598.116 436.525C598.116 435.792 597.866 435.2 597.366 434.75C596.866 434.283 596.224 434.05 595.441 434.05C594.657 434.05 594.016 434.283 593.516 434.75C593.032 435.2 592.791 435.792 592.791 436.525C592.791 437.242 593.032 437.825 593.516 438.275C594.016 438.725 594.657 438.95 595.441 438.95ZM595.441 446.525C596.357 446.525 597.091 446.275 597.641 445.775C598.207 445.275 598.491 444.6 598.491 443.75C598.491 442.917 598.207 442.258 597.641 441.775C597.074 441.275 596.341 441.025 595.441 441.025C594.541 441.025 593.807 441.275 593.241 441.775C592.674 442.258 592.391 442.917 592.391 443.75C592.391 444.6 592.666 445.275 593.216 445.775C593.782 446.275 594.524 446.525 595.441 446.525ZM612.746 449.375C611.162 449.375 609.779 449.017 608.596 448.3C607.429 447.567 606.529 446.517 605.896 445.15C605.262 443.767 604.946 442.142 604.946 440.275C604.946 438.392 605.254 436.767 605.871 435.4C606.504 434.033 607.404 432.983 608.571 432.25C609.754 431.517 611.146 431.15 612.746 431.15C614.346 431.15 615.729 431.517 616.896 432.25C618.062 432.983 618.954 434.033 619.571 435.4C620.204 436.767 620.521 438.392 620.521 440.275C620.521 442.142 620.204 443.767 619.571 445.15C618.937 446.517 618.037 447.567 616.871 448.3C615.704 449.017 614.329 449.375 612.746 449.375ZM612.746 445.875C613.996 445.875 614.962 445.383 615.646 444.4C616.329 443.417 616.671 442.058 616.671 440.325C616.671 438.575 616.329 437.2 615.646 436.2C614.979 435.2 614.012 434.7 612.746 434.7C611.479 434.7 610.504 435.2 609.821 436.2C609.154 437.2 608.821 438.575 608.821 440.325C608.821 442.058 609.162 443.417 609.846 444.4C610.529 445.383 611.496 445.875 612.746 445.875ZM630.957 449.375C629.374 449.375 627.991 449.017 626.807 448.3C625.641 447.567 624.741 446.517 624.107 445.15C623.474 443.767 623.157 442.142 623.157 440.275C623.157 438.392 623.466 436.767 624.082 435.4C624.716 434.033 625.616 432.983 626.782 432.25C627.966 431.517 629.357 431.15 630.957 431.15C632.557 431.15 633.941 431.517 635.107 432.25C636.274 432.983 637.166 434.033 637.782 435.4C638.416 436.767 638.732 438.392 638.732 440.275C638.732 442.142 638.416 443.767 637.782 445.15C637.149 446.517 636.249 447.567 635.082 448.3C633.916 449.017 632.541 449.375 630.957 449.375ZM630.957 445.875C632.207 445.875 633.174 445.383 633.857 444.4C634.541 443.417 634.882 442.058 634.882 440.325C634.882 438.575 634.541 437.2 633.857 436.2C633.191 435.2 632.224 434.7 630.957 434.7C629.691 434.7 628.716 435.2 628.032 436.2C627.366 437.2 627.032 438.575 627.032 440.325C627.032 442.058 627.374 443.417 628.057 444.4C628.741 445.383 629.707 445.875 630.957 445.875ZM646.669 449.375C645.503 449.375 644.519 449.25 643.719 449V445.85C644.469 446.2 645.353 446.375 646.369 446.375C647.803 446.375 648.961 445.967 649.844 445.15C650.728 444.317 651.261 443.108 651.444 441.525C650.961 442.025 650.353 442.408 649.619 442.675C648.903 442.925 648.103 443.05 647.219 443.05C646.069 443.05 645.053 442.817 644.169 442.35C643.286 441.883 642.594 441.217 642.094 440.35C641.611 439.467 641.369 438.433 641.369 437.25C641.369 436.083 641.636 435.042 642.169 434.125C642.703 433.192 643.486 432.467 644.519 431.95C645.553 431.417 646.803 431.15 648.269 431.15C649.686 431.15 650.928 431.467 651.994 432.1C653.061 432.717 653.886 433.617 654.469 434.8C655.053 435.967 655.344 437.367 655.344 439C655.344 441.2 654.986 443.083 654.269 444.65C653.553 446.2 652.544 447.375 651.244 448.175C649.944 448.975 648.419 449.375 646.669 449.375ZM648.269 440.2C649.136 440.2 649.861 439.908 650.444 439.325C651.028 438.742 651.319 438.008 651.319 437.125C651.319 436.275 651.028 435.55 650.444 434.95C649.878 434.35 649.153 434.05 648.269 434.05C647.386 434.05 646.653 434.342 646.069 434.925C645.503 435.492 645.219 436.225 645.219 437.125C645.219 438.008 645.503 438.742 646.069 439.325C646.653 439.908 647.386 440.2 648.269 440.2ZM663.171 449.375C662.204 449.375 661.246 449.267 660.296 449.05C659.362 448.85 658.579 448.567 657.946 448.2V444.925C658.679 445.392 659.496 445.758 660.396 446.025C661.312 446.275 662.179 446.4 662.996 446.4C664.296 446.4 665.271 446.15 665.921 445.65C666.571 445.133 666.896 444.392 666.896 443.425C666.896 442.492 666.571 441.775 665.921 441.275C665.287 440.775 664.387 440.525 663.221 440.525C662.637 440.525 662.021 440.583 661.371 440.7C660.737 440.817 660.179 440.975 659.696 441.175L658.171 440.3L658.871 431.525H669.596V434.65H662.446L662.171 438.025C663.087 437.825 664.004 437.725 664.921 437.725C666.754 437.725 668.179 438.225 669.196 439.225C670.229 440.208 670.746 441.583 670.746 443.35C670.746 445.267 670.104 446.75 668.821 447.8C667.554 448.85 665.671 449.375 663.171 449.375ZM678.674 449.375C677.508 449.375 676.524 449.25 675.724 449V445.85C676.474 446.2 677.358 446.375 678.374 446.375C679.808 446.375 680.966 445.967 681.849 445.15C682.733 444.317 683.266 443.108 683.449 441.525C682.966 442.025 682.358 442.408 681.624 442.675C680.908 442.925 680.108 443.05 679.224 443.05C678.074 443.05 677.058 442.817 676.174 442.35C675.291 441.883 674.599 441.217 674.099 440.35C673.616 439.467 673.374 438.433 673.374 437.25C673.374 436.083 673.641 435.042 674.174 434.125C674.708 433.192 675.491 432.467 676.524 431.95C677.558 431.417 678.808 431.15 680.274 431.15C681.691 431.15 682.933 431.467 683.999 432.1C685.066 432.717 685.891 433.617 686.474 434.8C687.058 435.967 687.349 437.367 687.349 439C687.349 441.2 686.991 443.083 686.274 444.65C685.558 446.2 684.549 447.375 683.249 448.175C681.949 448.975 680.424 449.375 678.674 449.375ZM680.274 440.2C681.141 440.2 681.866 439.908 682.449 439.325C683.033 438.742 683.324 438.008 683.324 437.125C683.324 436.275 683.033 435.55 682.449 434.95C681.883 434.35 681.158 434.05 680.274 434.05C679.391 434.05 678.658 434.342 678.074 434.925C677.508 435.492 677.224 436.225 677.224 437.125C677.224 438.008 677.508 438.742 678.074 439.325C678.658 439.908 679.391 440.2 680.274 440.2ZM696.875 449.375C694.759 449.375 693.075 448.917 691.825 448C690.575 447.083 689.95 445.775 689.95 444.075C689.95 443.042 690.2 442.175 690.7 441.475C691.2 440.758 691.867 440.242 692.7 439.925C692.017 439.542 691.484 439.017 691.1 438.35C690.734 437.683 690.55 436.942 690.55 436.125C690.55 434.575 691.117 433.358 692.25 432.475C693.4 431.592 694.942 431.15 696.875 431.15C698.809 431.15 700.342 431.592 701.475 432.475C702.609 433.358 703.175 434.575 703.175 436.125C703.175 436.958 702.984 437.708 702.6 438.375C702.234 439.025 701.709 439.542 701.025 439.925C701.859 440.242 702.525 440.758 703.025 441.475C703.525 442.175 703.775 443.042 703.775 444.075C703.775 445.775 703.15 447.083 701.9 448C700.667 448.917 698.992 449.375 696.875 449.375ZM696.875 438.95C697.659 438.95 698.3 438.725 698.8 438.275C699.3 437.825 699.55 437.242 699.55 436.525C699.55 435.792 699.3 435.2 698.8 434.75C698.3 434.283 697.659 434.05 696.875 434.05C696.092 434.05 695.45 434.283 694.95 434.75C694.467 435.2 694.225 435.792 694.225 436.525C694.225 437.242 694.467 437.825 694.95 438.275C695.45 438.725 696.092 438.95 696.875 438.95ZM696.875 446.525C697.792 446.525 698.525 446.275 699.075 445.775C699.642 445.275 699.925 444.6 699.925 443.75C699.925 442.917 699.642 442.258 699.075 441.775C698.509 441.275 697.775 441.025 696.875 441.025C695.975 441.025 695.242 441.275 694.675 441.775C694.109 442.258 693.825 442.917 693.825 443.75C693.825 444.6 694.1 445.275 694.65 445.775C695.217 446.275 695.959 446.525 696.875 446.525Z" fill="white"/>
</svg>
